/* XPM */
static char * cursor_xpm[] = {
"32 32 2 1",
" 	c #00AA00",
".	c #FFFFFF",
"                                ",
"     ..                         ",
"     ...                        ",
"     ....                       ",
"     .....                      ",
"     ......                     ",
"     .......                    ",
"     ........                   ",
"     .........                  ",
"     ..........                 ",
"     ............               ",
"     .............              ",
"     ..............             ",
"     ...............            ",
"     ................           ",
"     .................          ",
"     ..................         ",
"     ...................        ",
"     ....................       ",
"     .....................      ",
"     .............              ",
"     .............              ",
"     ..............             ",
"     ..............             ",
"     .....  ........            ",
"     ....    .......            ",
"     ...     .......            ",
"     ..       .......           ",
"     .        .......           ",
"              .......           ",
"               ....             ",
"               ..               "};
