/* XPM */
static char * quit_pause_hover_xpm[] = {
"134 40 4 1",
" 	c #00AA00",
".	c #FFFFFF",
"+	c #F6A617",
"@	c #F59D00",
"......................................................................................................................................",
"......................................................................................................................................",
"..                                                                                                                                  ..",
"..      +@@@@@@@@@@@@@@@@@@+          +@@@@@@+            +@@@@@@+      +@@@@@@@@@@@@@@@@@@@@@@+      +@@@@@@@@@@@@@@@@@@@@@@@@@@+  ..",
"..      +@@@@@@@@@@@@@@@@@@+          +@@@@@@+            +@@@@@@+      +@@@@@@@@@@@@@@@@@@@@@@+      +@@@@@@@@@@@@@@@@@@@@@@@@@@+  ..",
"..      +@@@@@@@@@@@@@@@@@@+          +@@@@@@+            +@@@@@@+      +@@@@@@@@@@@@@@@@@@@@@@+      +@@@@@@@@@@@@@@@@@@@@@@@@@@+  ..",
"..      +@@@@@@@@@@@@@@@@@@+          +@@@@@@+            +@@@@@@+      +@@@@@@@@@@@@@@@@@@@@@@+      +@@@@@@@@@@@@@@@@@@@@@@@@@@+  ..",
"..  +@@@@@@+            +@@@@@@+      +@@@@@@+            +@@@@@@+              +@@@@@@+                        +@@@@@@+            ..",
"..  +@@@@@@+            +@@@@@@+      +@@@@@@+            +@@@@@@+              +@@@@@@+                        +@@@@@@+            ..",
"..  +@@@@@@+            +@@@@@@+      +@@@@@@+            +@@@@@@+              +@@@@@@+                        +@@@@@@+            ..",
"..  +@@@@@@+            +@@@@@@+      +@@@@@@+            +@@@@@@+              +@@@@@@+                        +@@@@@@+            ..",
"..  +@@@@@@+            +@@@@@@+      +@@@@@@+            +@@@@@@+              +@@@@@@+                        +@@@@@@+            ..",
"..  +@@@@@@+            +@@@@@@+      +@@@@@@+            +@@@@@@+              +@@@@@@+                        +@@@@@@+            ..",
"..  +@@@@@@+            +@@@@@@+      +@@@@@@+            +@@@@@@+              +@@@@@@+                        +@@@@@@+            ..",
"..  +@@@@@@+            +@@@@@@+      +@@@@@@+            +@@@@@@+              +@@@@@@+                        +@@@@@@+            ..",
"..  +@@@@@@+            +@@@@@@+      +@@@@@@+            +@@@@@@+              +@@@@@@+                        +@@@@@@+            ..",
"..  +@@@@@@+            +@@@@@@+      +@@@@@@+            +@@@@@@+              +@@@@@@+                        +@@@@@@+            ..",
"..  +@@@@@@+            +@@@@@@+      +@@@@@@+            +@@@@@@+              +@@@@@@+                        +@@@@@@+            ..",
"..  +@@@@@@+            +@@@@@@+      +@@@@@@+            +@@@@@@+              +@@@@@@+                        +@@@@@@+            ..",
"..  +@@@@@@+            +@@@@@@+      +@@@@@@+            +@@@@@@+              +@@@@@@+                        +@@@@@@+            ..",
"..  +@@@@@@+            +@@@@@@+      +@@@@@@+            +@@@@@@+              +@@@@@@+                        +@@@@@@+            ..",
"..  +@@@@@@+            +@@@@@@+      +@@@@@@+            +@@@@@@+              +@@@@@@+                        +@@@@@@+            ..",
"..  +@@@@@@+            +@@@@@@+      +@@@@@@+            +@@@@@@+              +@@@@@@+                        +@@@@@@+            ..",
"..  +@@@@@@+    +@@@@@@@@@@@@@@+      +@@@@@@+            +@@@@@@+              +@@@@@@+                        +@@@@@@+            ..",
"..  +@@@@@@+    +@@@@@@@@@@@@@@+      +@@@@@@+            +@@@@@@+              +@@@@@@+                        +@@@@@@+            ..",
"..  +@@@@@@+    +@@@@@@@@@@@@@@+      +@@@@@@+            +@@@@@@+              +@@@@@@+                        +@@@@@@+            ..",
"..  +@@@@@@+    +@@@@@@@@@@@@@@+      +@@@@@@+            +@@@@@@+              +@@@@@@+                        +@@@@@@+            ..",
"..  +@@@@@@+        +@@@@@@+          +@@@@@@+            +@@@@@@+              +@@@@@@+                        +@@@@@@+            ..",
"..  +@@@@@@+        +@@@@@@+          +@@@@@@+            +@@@@@@+              +@@@@@@+                        +@@@@@@+            ..",
"..  +@@@@@@+        +@@@@@@+          +@@@@@@+            +@@@@@@+              +@@@@@@+                        +@@@@@@+            ..",
"..  +@@@@@@+        +@@@@@@+          +@@@@@@+            +@@@@@@+              +@@@@@@+                        +@@@@@@+            ..",
"..      +@@@@@@@@@@@@@@+    +@@+          +@@@@@@@@@@@@@@@@@@+          +@@@@@@@@@@@@@@@@@@@@@@+                +@@@@@@+            ..",
"..      +@@@@@@@@@@@@@@+    +@@+          +@@@@@@@@@@@@@@@@@@+          +@@@@@@@@@@@@@@@@@@@@@@+                +@@@@@@+            ..",
"..      +@@@@@@@@@@@@@@+    +@@+          +@@@@@@@@@@@@@@@@@@+          +@@@@@@@@@@@@@@@@@@@@@@+                +@@@@@@+            ..",
"..      +@@@@@@@@@@@@@@+    +@@+          +@@@@@@@@@@@@@@@@@@+          +@@@@@@@@@@@@@@@@@@@@@@+                +@@@@@@+            ..",
"..                                                                                                                                  ..",
"......................................................................................................................................",
"......................................................................................................................................",
"                                                                                                                                      ",
"                                                                                                                                      "};
