/* XPM */
static char * restart_xpm[] = {
"243 40 3 1",
" 	c #00AA00",
".	c #F6A617",
"+	c #F59D00",
"                                                                                                                                                                                                                                                   ",
"                                                                                                                                                                                                                                                   ",
"                                                                                                                                                                                                                                                   ",
"                                                                                                                                                                                                                                                   ",
"      .++++++++++++++++++++++.          .++++++++++++++++++++++++++.          .++++++++++++++++++.          .++++++++++++++++++++++++++.              .++++++++++.              .++++++++++++++++++++++.          .++++++++++++++++++++++++++.     ",
"      .++++++++++++++++++++++.          .++++++++++++++++++++++++++.          .++++++++++++++++++.          .++++++++++++++++++++++++++.              .++++++++++.              .++++++++++++++++++++++.          .++++++++++++++++++++++++++.     ",
"      .++++++++++++++++++++++.          .++++++++++++++++++++++++++.          .++++++++++++++++++.          .++++++++++++++++++++++++++.              .++++++++++.              .++++++++++++++++++++++.          .++++++++++++++++++++++++++.     ",
"      .++++++++++++++++++++++.          .++++++++++++++++++++++++++.          .++++++++++++++++++.          .++++++++++++++++++++++++++.              .++++++++++.              .++++++++++++++++++++++.          .++++++++++++++++++++++++++.     ",
"      .++++++.            .++++++.      .++++++.                          .++++++.            .++++++.                .++++++.                    .++++++.    .++++++.          .++++++.            .++++++.                .++++++.               ",
"      .++++++.            .++++++.      .++++++.                          .++++++.            .++++++.                .++++++.                    .++++++.    .++++++.          .++++++.            .++++++.                .++++++.               ",
"      .++++++.            .++++++.      .++++++.                          .++++++.            .++++++.                .++++++.                    .++++++.    .++++++.          .++++++.            .++++++.                .++++++.               ",
"      .++++++.            .++++++.      .++++++.                          .++++++.            .++++++.                .++++++.                    .++++++.    .++++++.          .++++++.            .++++++.                .++++++.               ",
"      .++++++.            .++++++.      .++++++.                          .++++++.                                    .++++++.                .++++++.            .++++++.      .++++++.            .++++++.                .++++++.               ",
"      .++++++.            .++++++.      .++++++.                          .++++++.                                    .++++++.                .++++++.            .++++++.      .++++++.            .++++++.                .++++++.               ",
"      .++++++.            .++++++.      .++++++.                          .++++++.                                    .++++++.                .++++++.            .++++++.      .++++++.            .++++++.                .++++++.               ",
"      .++++++.            .++++++.      .++++++.                          .++++++.                                    .++++++.                .++++++.            .++++++.      .++++++.            .++++++.                .++++++.               ",
"      .++++++++++++++++++++++.          .++++++++++++++++++.                  .++++++++++++++++++.                    .++++++.                .++++++.            .++++++.      .++++++++++++++++++++++.                    .++++++.               ",
"      .++++++++++++++++++++++.          .++++++++++++++++++.                  .++++++++++++++++++.                    .++++++.                .++++++.            .++++++.      .++++++++++++++++++++++.                    .++++++.               ",
"      .++++++++++++++++++++++.          .++++++++++++++++++.                  .++++++++++++++++++.                    .++++++.                .++++++.            .++++++.      .++++++++++++++++++++++.                    .++++++.               ",
"      .++++++++++++++++++++++.          .++++++++++++++++++.                  .++++++++++++++++++.                    .++++++.                .++++++.            .++++++.      .++++++++++++++++++++++.                    .++++++.               ",
"      .++++++.            .++++++.      .++++++.                                              .++++++.                .++++++.                .++++++++++++++++++++++++++.      .++++++.            .++++++.                .++++++.               ",
"      .++++++.            .++++++.      .++++++.                                              .++++++.                .++++++.                .++++++++++++++++++++++++++.      .++++++.            .++++++.                .++++++.               ",
"      .++++++.            .++++++.      .++++++.                                              .++++++.                .++++++.                .++++++++++++++++++++++++++.      .++++++.            .++++++.                .++++++.               ",
"      .++++++.            .++++++.      .++++++.                                              .++++++.                .++++++.                .++++++++++++++++++++++++++.      .++++++.            .++++++.                .++++++.               ",
"      .++++++.            .++++++.      .++++++.                                              .++++++.                .++++++.                .++++++.            .++++++.      .++++++.            .++++++.                .++++++.               ",
"      .++++++.            .++++++.      .++++++.                                              .++++++.                .++++++.                .++++++.            .++++++.      .++++++.            .++++++.                .++++++.               ",
"      .++++++.            .++++++.      .++++++.                                              .++++++.                .++++++.                .++++++.            .++++++.      .++++++.            .++++++.                .++++++.               ",
"      .++++++.            .++++++.      .++++++.                                              .++++++.                .++++++.                .++++++.            .++++++.      .++++++.            .++++++.                .++++++.               ",
"      .++++++.            .++++++.      .++++++.                          .++++++.            .++++++.                .++++++.                .++++++.            .++++++.      .++++++.            .++++++.                .++++++.               ",
"      .++++++.            .++++++.      .++++++.                          .++++++.            .++++++.                .++++++.                .++++++.            .++++++.      .++++++.            .++++++.                .++++++.               ",
"      .++++++.            .++++++.      .++++++.                          .++++++.            .++++++.                .++++++.                .++++++.            .++++++.      .++++++.            .++++++.                .++++++.               ",
"      .++++++.            .++++++.      .++++++.                          .++++++.            .++++++.                .++++++.                .++++++.            .++++++.      .++++++.            .++++++.                .++++++.               ",
"      .++++++.            .++++++.      .++++++++++++++++++++++++++.          .++++++++++++++++++.                    .++++++.                .++++++.            .++++++.      .++++++.            .++++++.                .++++++.               ",
"      .++++++.            .++++++.      .++++++++++++++++++++++++++.          .++++++++++++++++++.                    .++++++.                .++++++.            .++++++.      .++++++.            .++++++.                .++++++.               ",
"      .++++++.            .++++++.      .++++++++++++++++++++++++++.          .++++++++++++++++++.                    .++++++.                .++++++.            .++++++.      .++++++.            .++++++.                .++++++.               ",
"      .++++++.            .++++++.      .++++++++++++++++++++++++++.          .++++++++++++++++++.                    .++++++.                .++++++.            .++++++.      .++++++.            .++++++.                .++++++.               ",
"                                                                                                                                                                                                                                                   ",
"                                                                                                                                                                                                                                                   ",
"                                                                                                                                                                                                                                                   ",
"                                                                                                                                                                                                                                                   "};
