/* XPM */
static char * resume_xpm[] = {
"241 40 3 1",
" 	c #00AA00",
".	c #F7AD2C",
"+	c #F59D00",
"                                                                                                                                                                                                                                                 ",
"                                                                                                                                                                                                                                                 ",
"                                                                                                                                                                                                                                                 ",
"                                                                                                                                                                                                                                                 ",
"    .++++++++++++++++++++++.          .++++++++++++++++++++++++++.          .++++++++++++++++++.          .++++++.            .++++++.      .++.                    .++.      .++++++++++++++++++++++++++.                                       ",
"    .++++++++++++++++++++++.          .++++++++++++++++++++++++++.          .++++++++++++++++++.          .++++++.            .++++++.      .++.                    .++.      .++++++++++++++++++++++++++.                                       ",
"    .++++++++++++++++++++++.          .++++++++++++++++++++++++++.          .++++++++++++++++++.          .++++++.            .++++++.      .++.                    .++.      .++++++++++++++++++++++++++.                                       ",
"    .++++++++++++++++++++++.          .++++++++++++++++++++++++++.          .++++++++++++++++++.          .++++++.            .++++++.      .++.                    .++.      .++++++++++++++++++++++++++.                                       ",
"    .++++++.            .++++++.      .++++++.                          .++++++.            .++++++.      .++++++.            .++++++.      .++++++.            .++++++.      .++++++.                                                           ",
"    .++++++.            .++++++.      .++++++.                          .++++++.            .++++++.      .++++++.            .++++++.      .++++++.            .++++++.      .++++++.                                                           ",
"    .++++++.            .++++++.      .++++++.                          .++++++.            .++++++.      .++++++.            .++++++.      .++++++.            .++++++.      .++++++.                                                           ",
"    .++++++.            .++++++.      .++++++.                          .++++++.            .++++++.      .++++++.            .++++++.      .++++++.            .++++++.      .++++++.                                                           ",
"    .++++++.            .++++++.      .++++++.                          .++++++.                          .++++++.            .++++++.      .++++++++++.    .++++++++++.      .++++++.                                                           ",
"    .++++++.            .++++++.      .++++++.                          .++++++.                          .++++++.            .++++++.      .++++++++++.    .++++++++++.      .++++++.                                                           ",
"    .++++++.            .++++++.      .++++++.                          .++++++.                          .++++++.            .++++++.      .++++++++++.    .++++++++++.      .++++++.                                                           ",
"    .++++++.            .++++++.      .++++++.                          .++++++.                          .++++++.            .++++++.      .++++++++++.    .++++++++++.      .++++++.                                                           ",
"    .++++++++++++++++++++++.          .++++++++++++++++++.                  .++++++++++++++++++.          .++++++.            .++++++.      .++++++++++++++++++++++++++.      .++++++++++++++++++.                                               ",
"    .++++++++++++++++++++++.          .++++++++++++++++++.                  .++++++++++++++++++.          .++++++.            .++++++.      .++++++++++++++++++++++++++.      .++++++++++++++++++.                                               ",
"    .++++++++++++++++++++++.          .++++++++++++++++++.                  .++++++++++++++++++.          .++++++.            .++++++.      .++++++++++++++++++++++++++.      .++++++++++++++++++.                                               ",
"    .++++++++++++++++++++++.          .++++++++++++++++++.                  .++++++++++++++++++.          .++++++.            .++++++.      .++++++++++++++++++++++++++.      .++++++++++++++++++.                                               ",
"    .++++++.            .++++++.      .++++++.                                              .++++++.      .++++++.            .++++++.      .++++++.    .++.    .++++++.      .++++++.                                                           ",
"    .++++++.            .++++++.      .++++++.                                              .++++++.      .++++++.            .++++++.      .++++++.    .++.    .++++++.      .++++++.                                                           ",
"    .++++++.            .++++++.      .++++++.                                              .++++++.      .++++++.            .++++++.      .++++++.    .++.    .++++++.      .++++++.                                                           ",
"    .++++++.            .++++++.      .++++++.                                              .++++++.      .++++++.            .++++++.      .++++++.    .++.    .++++++.      .++++++.                                                           ",
"    .++++++.            .++++++.      .++++++.                                              .++++++.      .++++++.            .++++++.      .++++++.            .++++++.      .++++++.                                                           ",
"    .++++++.            .++++++.      .++++++.                                              .++++++.      .++++++.            .++++++.      .++++++.            .++++++.      .++++++.                                                           ",
"    .++++++.            .++++++.      .++++++.                                              .++++++.      .++++++.            .++++++.      .++++++.            .++++++.      .++++++.                                                           ",
"    .++++++.            .++++++.      .++++++.                                              .++++++.      .++++++.            .++++++.      .++++++.            .++++++.      .++++++.                                                           ",
"    .++++++.            .++++++.      .++++++.                          .++++++.            .++++++.      .++++++.            .++++++.      .++++++.            .++++++.      .++++++.                                                           ",
"    .++++++.            .++++++.      .++++++.                          .++++++.            .++++++.      .++++++.            .++++++.      .++++++.            .++++++.      .++++++.                                                           ",
"    .++++++.            .++++++.      .++++++.                          .++++++.            .++++++.      .++++++.            .++++++.      .++++++.            .++++++.      .++++++.                                                           ",
"    .++++++.            .++++++.      .++++++.                          .++++++.            .++++++.      .++++++.            .++++++.      .++++++.            .++++++.      .++++++.                                                           ",
"    .++++++.            .++++++.      .++++++++++++++++++++++++++.          .++++++++++++++++++.              .++++++++++++++++++.          .++++++.            .++++++.      .++++++++++++++++++++++++++.                                       ",
"    .++++++.            .++++++.      .++++++++++++++++++++++++++.          .++++++++++++++++++.              .++++++++++++++++++.          .++++++.            .++++++.      .++++++++++++++++++++++++++.                                       ",
"    .++++++.            .++++++.      .++++++++++++++++++++++++++.          .++++++++++++++++++.              .++++++++++++++++++.          .++++++.            .++++++.      .++++++++++++++++++++++++++.                                       ",
"    .++++++.            .++++++.      .++++++++++++++++++++++++++.          .++++++++++++++++++.              .++++++++++++++++++.          .++++++.            .++++++.      .++++++++++++++++++++++++++.                                       ",
"                                                                                                                                                                                                                                                 ",
"                                                                                                                                                                                                                                                 ",
"                                                                                                                                                                                                                                                 ",
"                                                                                                                                                                                                                                                 "};
