/* XPM */
static char * resume_hover_xpm[] = {
"207 40 4 1",
" 	c #00AA00",
".	c #FFFFFF",
"+	c #F6A617",
"@	c #F59D00",
"...............................................................................................................................................................................................................",
"...............................................................................................................................................................................................................",
"..                                                                                                                                                                                                           ..",
"..                                                                                                                                                                                                           ..",
"..  +@@@@@@@@@@@@@@@@@@@@@@+          +@@@@@@@@@@@@@@@@@@@@@@@@@@+          +@@@@@@@@@@@@@@@@@@+          +@@@@@@+            +@@@@@@+      +@@+                    +@@+      +@@@@@@@@@@@@@@@@@@@@@@@@@@+   ..",
"..  +@@@@@@@@@@@@@@@@@@@@@@+          +@@@@@@@@@@@@@@@@@@@@@@@@@@+          +@@@@@@@@@@@@@@@@@@+          +@@@@@@+            +@@@@@@+      +@@+                    +@@+      +@@@@@@@@@@@@@@@@@@@@@@@@@@+   ..",
"..  +@@@@@@@@@@@@@@@@@@@@@@+          +@@@@@@@@@@@@@@@@@@@@@@@@@@+          +@@@@@@@@@@@@@@@@@@+          +@@@@@@+            +@@@@@@+      +@@+                    +@@+      +@@@@@@@@@@@@@@@@@@@@@@@@@@+   ..",
"..  +@@@@@@@@@@@@@@@@@@@@@@+          +@@@@@@@@@@@@@@@@@@@@@@@@@@+          +@@@@@@@@@@@@@@@@@@+          +@@@@@@+            +@@@@@@+      +@@+                    +@@+      +@@@@@@@@@@@@@@@@@@@@@@@@@@+   ..",
"..  +@@@@@@+            +@@@@@@+      +@@@@@@+                          +@@@@@@+            +@@@@@@+      +@@@@@@+            +@@@@@@+      +@@@@@@+            +@@@@@@+      +@@@@@@+                       ..",
"..  +@@@@@@+            +@@@@@@+      +@@@@@@+                          +@@@@@@+            +@@@@@@+      +@@@@@@+            +@@@@@@+      +@@@@@@+            +@@@@@@+      +@@@@@@+                       ..",
"..  +@@@@@@+            +@@@@@@+      +@@@@@@+                          +@@@@@@+            +@@@@@@+      +@@@@@@+            +@@@@@@+      +@@@@@@+            +@@@@@@+      +@@@@@@+                       ..",
"..  +@@@@@@+            +@@@@@@+      +@@@@@@+                          +@@@@@@+            +@@@@@@+      +@@@@@@+            +@@@@@@+      +@@@@@@+            +@@@@@@+      +@@@@@@+                       ..",
"..  +@@@@@@+            +@@@@@@+      +@@@@@@+                          +@@@@@@+                          +@@@@@@+            +@@@@@@+      +@@@@@@@@@@+    +@@@@@@@@@@+      +@@@@@@+                       ..",
"..  +@@@@@@+            +@@@@@@+      +@@@@@@+                          +@@@@@@+                          +@@@@@@+            +@@@@@@+      +@@@@@@@@@@+    +@@@@@@@@@@+      +@@@@@@+                       ..",
"..  +@@@@@@+            +@@@@@@+      +@@@@@@+                          +@@@@@@+                          +@@@@@@+            +@@@@@@+      +@@@@@@@@@@+    +@@@@@@@@@@+      +@@@@@@+                       ..",
"..  +@@@@@@+            +@@@@@@+      +@@@@@@+                          +@@@@@@+                          +@@@@@@+            +@@@@@@+      +@@@@@@@@@@+    +@@@@@@@@@@+      +@@@@@@+                       ..",
"..  +@@@@@@@@@@@@@@@@@@@@@@+          +@@@@@@@@@@@@@@@@@@+                  +@@@@@@@@@@@@@@@@@@+          +@@@@@@+            +@@@@@@+      +@@@@@@@@@@@@@@@@@@@@@@@@@@+      +@@@@@@@@@@@@@@@@@@+           ..",
"..  +@@@@@@@@@@@@@@@@@@@@@@+          +@@@@@@@@@@@@@@@@@@+                  +@@@@@@@@@@@@@@@@@@+          +@@@@@@+            +@@@@@@+      +@@@@@@@@@@@@@@@@@@@@@@@@@@+      +@@@@@@@@@@@@@@@@@@+           ..",
"..  +@@@@@@@@@@@@@@@@@@@@@@+          +@@@@@@@@@@@@@@@@@@+                  +@@@@@@@@@@@@@@@@@@+          +@@@@@@+            +@@@@@@+      +@@@@@@@@@@@@@@@@@@@@@@@@@@+      +@@@@@@@@@@@@@@@@@@+           ..",
"..  +@@@@@@@@@@@@@@@@@@@@@@+          +@@@@@@@@@@@@@@@@@@+                  +@@@@@@@@@@@@@@@@@@+          +@@@@@@+            +@@@@@@+      +@@@@@@@@@@@@@@@@@@@@@@@@@@+      +@@@@@@@@@@@@@@@@@@+           ..",
"..  +@@@@@@+            +@@@@@@+      +@@@@@@+                                              +@@@@@@+      +@@@@@@+            +@@@@@@+      +@@@@@@+    +@@+    +@@@@@@+      +@@@@@@+                       ..",
"..  +@@@@@@+            +@@@@@@+      +@@@@@@+                                              +@@@@@@+      +@@@@@@+            +@@@@@@+      +@@@@@@+    +@@+    +@@@@@@+      +@@@@@@+                       ..",
"..  +@@@@@@+            +@@@@@@+      +@@@@@@+                                              +@@@@@@+      +@@@@@@+            +@@@@@@+      +@@@@@@+    +@@+    +@@@@@@+      +@@@@@@+                       ..",
"..  +@@@@@@+            +@@@@@@+      +@@@@@@+                                              +@@@@@@+      +@@@@@@+            +@@@@@@+      +@@@@@@+    +@@+    +@@@@@@+      +@@@@@@+                       ..",
"..  +@@@@@@+            +@@@@@@+      +@@@@@@+                                              +@@@@@@+      +@@@@@@+            +@@@@@@+      +@@@@@@+            +@@@@@@+      +@@@@@@+                       ..",
"..  +@@@@@@+            +@@@@@@+      +@@@@@@+                                              +@@@@@@+      +@@@@@@+            +@@@@@@+      +@@@@@@+            +@@@@@@+      +@@@@@@+                       ..",
"..  +@@@@@@+            +@@@@@@+      +@@@@@@+                                              +@@@@@@+      +@@@@@@+            +@@@@@@+      +@@@@@@+            +@@@@@@+      +@@@@@@+                       ..",
"..  +@@@@@@+            +@@@@@@+      +@@@@@@+                                              +@@@@@@+      +@@@@@@+            +@@@@@@+      +@@@@@@+            +@@@@@@+      +@@@@@@+                       ..",
"..  +@@@@@@+            +@@@@@@+      +@@@@@@+                          +@@@@@@+            +@@@@@@+      +@@@@@@+            +@@@@@@+      +@@@@@@+            +@@@@@@+      +@@@@@@+                       ..",
"..  +@@@@@@+            +@@@@@@+      +@@@@@@+                          +@@@@@@+            +@@@@@@+      +@@@@@@+            +@@@@@@+      +@@@@@@+            +@@@@@@+      +@@@@@@+                       ..",
"..  +@@@@@@+            +@@@@@@+      +@@@@@@+                          +@@@@@@+            +@@@@@@+      +@@@@@@+            +@@@@@@+      +@@@@@@+            +@@@@@@+      +@@@@@@+                       ..",
"..  +@@@@@@+            +@@@@@@+      +@@@@@@+                          +@@@@@@+            +@@@@@@+      +@@@@@@+            +@@@@@@+      +@@@@@@+            +@@@@@@+      +@@@@@@+                       ..",
"..  +@@@@@@+            +@@@@@@+      +@@@@@@@@@@@@@@@@@@@@@@@@@@+          +@@@@@@@@@@@@@@@@@@+              +@@@@@@@@@@@@@@@@@@+          +@@@@@@+            +@@@@@@+      +@@@@@@@@@@@@@@@@@@@@@@@@@@+   ..",
"..  +@@@@@@+            +@@@@@@+      +@@@@@@@@@@@@@@@@@@@@@@@@@@+          +@@@@@@@@@@@@@@@@@@+              +@@@@@@@@@@@@@@@@@@+          +@@@@@@+            +@@@@@@+      +@@@@@@@@@@@@@@@@@@@@@@@@@@+   ..",
"..  +@@@@@@+            +@@@@@@+      +@@@@@@@@@@@@@@@@@@@@@@@@@@+          +@@@@@@@@@@@@@@@@@@+              +@@@@@@@@@@@@@@@@@@+          +@@@@@@+            +@@@@@@+      +@@@@@@@@@@@@@@@@@@@@@@@@@@+   ..",
"..  +@@@@@@+            +@@@@@@+      +@@@@@@@@@@@@@@@@@@@@@@@@@@+          +@@@@@@@@@@@@@@@@@@+              +@@@@@@@@@@@@@@@@@@+          +@@@@@@+            +@@@@@@+      +@@@@@@@@@@@@@@@@@@@@@@@@@@+   ..",
"..                                                                                                                                                                                                           ..",
"..                                                                                                                                                                                                           ..",
"...............................................................................................................................................................................................................",
"..............................................................................................................................................................................................................."};
