/* XPM */
static char * quit_xpm[] = {
"49 15 2 1",
" 	c #00AA00",
".	c #F59D00",
"        .....    .     .  .......  .......       ",
"       .     .   .     .     .        .          ",
"       .     .   .     .     .        .          ",
"       .     .   .     .     .        .          ",
"       .     .   .     .     .        .          ",
"       .     .   .     .     .        .          ",
"       .     .   .     .     .        .          ",
"       .     .   .     .     .        .          ",
"       .     .   .     .     .        .          ",
"       .     .   .     .     .        .          ",
"       .  .. .   .     .     .        .          ",
"       .   ...   .     .     .        .          ",
"        ... .    .......  .......     .          ",
"             .                                   ",
"                                                 "};
