/* XPM */
static char * quit_xpm[] = {
"167 42 21 1",
" 	c #00AA00",
".	c #F9C86F",
"+	c #F59D00",
"@	c #F7AE2F",
"#	c #F8B847",
"$	c #F6A617",
"%	c #F4A00B",
"&	c #F7AE2C",
"*	c #F6A416",
"=	c #F5A30F",
"-	c #F7AD2D",
";	c #F5A71D",
">	c #F8BE59",
",	c #F4A20C",
"'	c #F7AD29",
")	c #F7B43F",
"!	c #F49F08",
"~	c #F7B33C",
"{	c #F8B642",
"]	c #F9C362",
"^	c #F4A10A",
"     .+++++++++++++++++++++++++@             @+++++++++#               .+++++++++$        @++++++++++++++++++++++++++++++#        ++++++++++++++++++++++++++++++++++++.",
"     .+++++++++++++++++++++++++@             @+++++++++#               .+++++++++$        @++++++++++++++++++++++++++++++#        ++++++++++++++++++++++++++++++++++++.",
"     .+++++++++++++++++++++++++@             @+++++++++#               .+++++++++$        @++++++++++++++++++++++++++++++#        ++++++++++++++++++++++++++++++++++++.",
"     .+++++++++++++++++++++++++@             @+++++++++#               .+++++++++$        @++++++++++++++++++++++++++++++#        ++++++++++++++++++++++++++++++++++++.",
"     .+++++++++++++++++++++++++@             @+++++++++#               .+++++++++$        @++++++++++++++++++++++++++++++#        ++++++++++++++++++++++++++++++++++++.",
"#+++++++++@                +++++++++%        @+++++++++#               .+++++++++$                   +++++++++%                                %+++++++++              ",
"#+++++++++@                +++++++++%        @+++++++++#               .+++++++++$                   +++++++++%                                %+++++++++              ",
"#+++++++++@                +++++++++%        @+++++++++#               .+++++++++$                   +++++++++%                                %+++++++++              ",
"#+++++++++@                +++++++++%        @+++++++++#               .+++++++++$                   +++++++++%                                %+++++++++              ",
"#+++++++++@                +++++++++%        @+++++++++#               .+++++++++$                   +++++++++%                                %+++++++++              ",
"#+++++++++@                +++++++++%        @+++++++++#               .+++++++++$                   +++++++++%                                %+++++++++              ",
"#+++++++++@                +++++++++%        @+++++++++#               .+++++++++$                   +++++++++%                                %+++++++++              ",
"#+++++++++@                +++++++++%        @+++++++++#               .+++++++++$                   +++++++++%                                %+++++++++              ",
"#+++++++++@                +++++++++%        @+++++++++#               .+++++++++$                   +++++++++%                                %+++++++++              ",
"#+++++++++@                +++++++++%        @+++++++++#               .+++++++++$                   +++++++++%                                %+++++++++              ",
"#+++++++++@                +++++++++%        @+++++++++#               .+++++++++$                   +++++++++%                                %+++++++++              ",
"#+++++++++@                +++++++++%        @+++++++++#               .+++++++++$                   +++++++++%                                %+++++++++              ",
"#+++++++++@                +++++++++%        @+++++++++#               .+++++++++$                   +++++++++%                                %+++++++++              ",
"#+++++++++@                +++++++++%        @+++++++++#               .+++++++++$                   +++++++++%                                %+++++++++              ",
"#+++++++++@                +++++++++%        @+++++++++#               .+++++++++$                   +++++++++%                                %+++++++++              ",
"#+++++++++@                +++++++++%        @+++++++++#               .+++++++++$                   +++++++++%                                %+++++++++              ",
"#+++++++++@                +++++++++%        @+++++++++#               .+++++++++$                   +++++++++%                                %+++++++++              ",
"#+++++++++@                +++++++++%        @+++++++++#               .+++++++++$                   +++++++++%                                %+++++++++              ",
"#+++++++++@                +++++++++%        @+++++++++#               .+++++++++$                   +++++++++%                                %+++++++++              ",
"#+++++++++@                +++++++++%        @+++++++++#               .+++++++++$                   +++++++++%                                %+++++++++              ",
"#+++++++++@                +++++++++%        @+++++++++#               .+++++++++$                   +++++++++%                                %+++++++++              ",
"#+++++++++@     &*********=+++++++++%        @+++++++++#               .+++++++++$                   +++++++++%                                %+++++++++              ",
"#+++++++++@     $+++++++++++++++++++%        @+++++++++#               .+++++++++$                   +++++++++%                                %+++++++++              ",
"#+++++++++@     $+++++++++++++++++++%        @+++++++++#               .+++++++++$                   +++++++++%                                %+++++++++              ",
"#+++++++++@     $+++++++++++++++++++%        @+++++++++#               .+++++++++$                   +++++++++%                                %+++++++++              ",
"#+++++++++@     $+++++++++++++++++++%        @+++++++++#               .+++++++++$                   +++++++++%                                %+++++++++              ",
"#+++++++++@          -+++++++++;             @+++++++++#               .+++++++++$                   +++++++++%                                %+++++++++              ",
"#+++++++++@          #+++++++++@             @+++++++++#               .+++++++++$                   +++++++++%                                %+++++++++              ",
"#+++++++++@          #+++++++++@             @+++++++++#               .+++++++++$                   +++++++++%                                %+++++++++              ",
"#+++++++++@          #+++++++++@             @+++++++++#               .+++++++++$                   +++++++++%                                %+++++++++              ",
"#+++++++++@          #+++++++++@             @+++++++++#               .+++++++++$                   +++++++++%                                %+++++++++              ",
">****,++++'          )++++!****~             {****!++++)               ]++++!****&                   +++++++++^                                %+++++++++              ",
"     .++++++++++++++++++++#     %+++%             #+++++++++++++++++++++++++#             @++++++++++++++++++++++++++++++#                     %+++++++++              ",
"     .++++++++++++++++++++#     %+++%             #+++++++++++++++++++++++++#             @++++++++++++++++++++++++++++++#                     %+++++++++              ",
"     .++++++++++++++++++++#     %+++%             #+++++++++++++++++++++++++#             @++++++++++++++++++++++++++++++#                     %+++++++++              ",
"     .++++++++++++++++++++#     %+++%             #+++++++++++++++++++++++++#             @++++++++++++++++++++++++++++++#                     %+++++++++              ",
"     .++++++++++++++++++++#     %+++%             #+++++++++++++++++++++++++#             @++++++++++++++++++++++++++++++#                     %+++++++++              "};
