/* XPM */
static char * quit_hover_xpm[] = {
"39 17 3 1",
" 	c #00AA00",
".	c #FFFFFF",
"+	c #F59D00",
".......................................",
".                                     .",
".  +++++    +     +  +++++++  +++++++ .",
". +     +   +     +     +        +    .",
". +     +   +     +     +        +    .",
". +     +   +     +     +        +    .",
". +     +   +     +     +        +    .",
". +     +   +     +     +        +    .",
". +     +   +     +     +        +    .",
". +     +   +     +     +        +    .",
". +     +   +     +     +        +    .",
". +     +   +     +     +        +    .",
". +  ++ +   +     +     +        +    .",
". +   +++   +     +     +        +    .",
".  +++ +    +++++++  +++++++     +    .",
".       +                             .",
"......................................."};
