/* XPM */
static char * quit_hover_xpm[] = {
"176 50 42 1",
" 	c #00AA00",
".	c #FFFFFF",
"+	c #F8F8F8",
"@	c #F9C86F",
"#	c #F59D00",
"$	c #F7AE2F",
"%	c #F8B847",
"&	c #F6A617",
"*	c #F9C66C",
"=	c #F59D01",
"-	c #F59F07",
";	c #EF9B07",
">	c #F59F04",
",	c #F7AE2E",
"'	c #F2AD35",
")	c #F59F05",
"!	c #F3B64C",
"~	c #F5C773",
"{	c #F4A00B",
"]	c #F7AE2B",
"^	c #F6A415",
"/	c #F5A30F",
"(	c #F6A71B",
"_	c #F59E04",
":	c #F5A20F",
"<	c #F5A71E",
"[	c #F8B848",
"}	c #F8B747",
"|	c #F7AE30",
"1	c #F9C76F",
"2	c #F6A618",
"3	c #F4BE5E",
"4	c #F0A31C",
"5	c #F6AC28",
"6	c #F7B43D",
"7	c #F4A00A",
"8	c #F7B540",
"9	c #F3B547",
"0	c #F9C25F",
"a	c #F1AD32",
"b	c #F4A10A",
"c	c #EF9F12",
"................................................................................................................................................................................",
"..++++++++++++++++++++++++++++++++++++++++++++++++++++++++++++++++++++++++++++++++++++++++++++++++++++++++++++++++++++++++++++++++++++++++++++++++++++++++++++++++++++++++++++..",
"..                                                                                                                                                                            ..",
"..                                                                                                                                                                            ..",
"..        @#########################$             $#########%               @#########&        $##############################%        ####################################@  ..",
"..        @#########################$             $#########%               @#########&        $##############################%        ####################################@  ..",
"..        @#########################$             $#########%               @#########&        $##############################%        ####################################@  ..",
"..        @#########################$             $#########%               @#########&        $##############################%        ####################################@  ..",
"..        *####=-;;;;;;;;;;;;;;>####,             $#########%               @#########&        ';;;;;;;;;>##########);;;;;;;;;!        ;;;;;;;;;;;;)##########>;;;;;;;;;;;;~  ..",
"..   %#########$                #########{        $#########%               @#########&                   #########{                                {#########                ..",
"..   %#########$                #########{        $#########%               @#########&                   #########{                                {#########                ..",
"..   %#########$                #########{        $#########%               @#########&                   #########{                                {#########                ..",
"..   %#########$                #########{        $#########%               @#########&                   #########{                                {#########                ..",
"..   %#########$                #########{        $#########%               @#########&                   #########{                                {#########                ..",
"..   %#########$                #########{        $#########%               @#########&                   #########{                                {#########                ..",
"..   %#########$                #########{        $#########%               @#########&                   #########{                                {#########                ..",
"..   %#########$                #########{        $#########%               @#########&                   #########{                                {#########                ..",
"..   %#########$                #########{        $#########%               @#########&                   #########{                                {#########                ..",
"..   %#########$                #########{        $#########%               @#########&                   #########{                                {#########                ..",
"..   %#########$                #########{        $#########%               @#########&                   #########{                                {#########                ..",
"..   %#########$                #########{        $#########%               @#########&                   #########{                                {#########                ..",
"..   %#########$                #########{        $#########%               @#########&                   #########{                                {#########                ..",
"..   %#########$                #########{        $#########%               @#########&                   #########{                                {#########                ..",
"..   %#########$                #########{        $#########%               @#########&                   #########{                                {#########                ..",
"..   %#########$                #########{        $#########%               @#########&                   #########{                                {#########                ..",
"..   %#########$                #########{        $#########%               @#########&                   #########{                                {#########                ..",
"..   %#########$                #########{        $#########%               @#########&                   #########{                                {#########                ..",
"..   %#########$                #########{        $#########%               @#########&                   #########{                                {#########                ..",
"..   %#########$                #########{        $#########%               @#########&                   #########{                                {#########                ..",
"..   %#########$                #########{        $#########%               @#########&                   #########{                                {#########                ..",
"..   %#########$     ]^^^^^^^^^/#########{        $#########%               @#########&                   #########{                                {#########                ..",
"..   %#########$     &###################{        $#########%               @#########&                   #########{                                {#########                ..",
"..   %#########$     &###################{        $#########%               @#########&                   #########{                                {#########                ..",
"..   %#########$     &###################{        $#########%               @#########&                   #########{                                {#########                ..",
"..   %#########$     (____=#########=____:        $#########%               @#########&                   #########{                                {#########                ..",
"..   %#########$          ,#########<             $#########%               @#########&                   #########{                                {#########                ..",
"..   %#########$          %#########$             $#########%               @#########&                   #########{                                {#########                ..",
"..   %#########$          %#########$             $#########%               @#########&                   #########{                                {#########                ..",
"..   %#########$          %#########$             $#########%               @#########&                   #########{                                {#########                ..",
"..   [====#####$          }#####====$             |====#####}               1#####====2                   #########{                                {#########                ..",
"..   34444/####5          6####744448             944447####6               0####74444a                   #########b                                {#########                ..",
"..        @####################%     {###{             %#########################%             $##############################%                     {#########                ..",
"..        @####################%     {###{             %#########################%             $##############################%                     {#########                ..",
"..        @####################%     {###{             %#########################%             $##############################%                     {#########                ..",
"..        @####################%     {###{             %#########################%             $##############################%                     {#########                ..",
"..        ~;;;;;;;;;;;;;;;;;;;;!     c;;;c             !;;;;;;;;;;;;;;;;;;;;;;;;;!             ';;;;;;;;;;;;;;;;;;;;;;;;;;;;;;!                     c;;;;;;;;;                ..",
"..                                                                                                                                                                            ..",
"..                                                                                                                                                                            ..",
"................................................................................................................................................................................",
"++++++++++++++++++++++++++++++++++++++++++++++++++++++++++++++++++++++++++++++++++++++++++++++++++++++++++++++++++++++++++++++++++++++++++++++++++++++++++++++++++++++++++++++++"};
