/* XPM */
static char * start_xpm[] = {
"217 42 26 1",
" 	c #00AA00",
".	c #F9C86F",
"+	c #F59D00",
"@	c #F7AE2F",
"#	c #F6A617",
"$	c #F4A00B",
"%	c #F8B847",
"&	c #F9C871",
"*	c #F7BB4E",
"=	c #F6A719",
"-	c #F7AD2D",
";	c #F8B745",
">	c #F9C05E",
",	c #F6AA25",
"'	c #F5A71D",
")	c #F9C15D",
"!	c #F7B133",
"~	c #F7B43F",
"{	c #F9C362",
"]	c #F8BE59",
"^	c #F6A416",
"/	c #F4A20C",
"(	c #F7AD29",
"_	c #F49F05",
":	c #F6A415",
"<	c #F5AA21",
"     .+++++++++++++++++++++++++@             @+++++++++++++++++++++++++++++++++++#                   +++++++++++++++.                  $++++++++++++++++++++++++++++++              ++++++++++++++++++++++++++++++++++++.",
"     .+++++++++++++++++++++++++@             @+++++++++++++++++++++++++++++++++++#                   +++++++++++++++.                  $++++++++++++++++++++++++++++++              ++++++++++++++++++++++++++++++++++++.",
"     .+++++++++++++++++++++++++@             @+++++++++++++++++++++++++++++++++++#                   +++++++++++++++.                  $++++++++++++++++++++++++++++++              ++++++++++++++++++++++++++++++++++++.",
"     .+++++++++++++++++++++++++@             @+++++++++++++++++++++++++++++++++++#                   +++++++++++++++.                  $++++++++++++++++++++++++++++++              ++++++++++++++++++++++++++++++++++++.",
"     .+++++++++++++++++++++++++@             @+++++++++++++++++++++++++++++++++++#                   +++++++++++++++.                  $++++++++++++++++++++++++++++++              ++++++++++++++++++++++++++++++++++++.",
"%+++++++++@                +++++++++$                     %+++++++++@                          %+++++++++@     @+++++++++%             $+++++++++                @+++++++++%                     $+++++++++              ",
"%+++++++++@                +++++++++$                     %+++++++++@                          %+++++++++@     @+++++++++%             $+++++++++                @+++++++++%                     $+++++++++              ",
"%+++++++++@                +++++++++$                     %+++++++++@                          %+++++++++@     @+++++++++%             $+++++++++                @+++++++++%                     $+++++++++              ",
"%+++++++++@                +++++++++$                     %+++++++++@                          %+++++++++@     @+++++++++%             $+++++++++                @+++++++++%                     $+++++++++              ",
"%+++++++++@                +++++++++$                     %+++++++++@                          %+++++++++@     @+++++++++%             $+++++++++                @+++++++++%                     $+++++++++              ",
"%+++++++++@                                               %+++++++++@                     &****=++++-               ;++++=****>        $+++++++++                @+++++++++%                     $+++++++++              ",
"%+++++++++@                                               %+++++++++@                     @+++++++++%               .+++++++++#        $+++++++++                @+++++++++%                     $+++++++++              ",
"%+++++++++@                                               %+++++++++@                     @+++++++++%               .+++++++++#        $+++++++++                @+++++++++%                     $+++++++++              ",
"%+++++++++@                                               %+++++++++@                     @+++++++++%               .+++++++++#        $+++++++++                @+++++++++%                     $+++++++++              ",
"%+++++++++@                                               %+++++++++@                     @+++++++++%               .+++++++++#        $+++++++++                @+++++++++%                     $+++++++++              ",
" ****,++++'                                               %+++++++++@                     @+++++++++%               .+++++++++#        $+++++++++)               '++++!****                      $+++++++++              ",
"     .+++++++++++++++++++++++++@                          %+++++++++@                     @+++++++++%               .+++++++++#        $++++++++++++++++++++++++++++++                           $+++++++++              ",
"     .+++++++++++++++++++++++++@                          %+++++++++@                     @+++++++++%               .+++++++++#        $++++++++++++++++++++++++++++++                           $+++++++++              ",
"     .+++++++++++++++++++++++++@                          %+++++++++@                     @+++++++++%               .+++++++++#        $++++++++++++++++++++++++++++++                           $+++++++++              ",
"     .+++++++++++++++++++++++++@                          %+++++++++@                     @+++++++++%               .+++++++++#        $++++++++++++++++++++++++++++++                           $+++++++++              ",
"     .+++++++++++++++++++++++++@                          %+++++++++@                     @+++++++++%               .+++++++++#        $++++++++++++++++++++++++++++++                           $+++++++++              ",
"                           +++++++++$                     %+++++++++@                     @+++++++++++++++++++++++++++++++++++#        $+++++++++                @+++++++++%                     $+++++++++              ",
"                           +++++++++$                     %+++++++++@                     @+++++++++++++++++++++++++++++++++++#        $+++++++++                @+++++++++%                     $+++++++++              ",
"                           +++++++++$                     %+++++++++@                     @+++++++++++++++++++++++++++++++++++#        $+++++++++                @+++++++++%                     $+++++++++              ",
"                           +++++++++$                     %+++++++++@                     @+++++++++++++++++++++++++++++++++++#        $+++++++++                @+++++++++%                     $+++++++++              ",
"                           +++++++++$                     %+++++++++@                     @+++++++++++++++++++++++++++++++++++#        $+++++++++                @+++++++++%                     $+++++++++              ",
"                           +++++++++$                     %+++++++++@                     @+++++++++~               {+++++++++#        $+++++++++                @+++++++++%                     $+++++++++              ",
"                           +++++++++$                     %+++++++++@                     @+++++++++%               .+++++++++#        $+++++++++                @+++++++++%                     $+++++++++              ",
"                           +++++++++$                     %+++++++++@                     @+++++++++%               .+++++++++#        $+++++++++                @+++++++++%                     $+++++++++              ",
"                           +++++++++$                     %+++++++++@                     @+++++++++%               .+++++++++#        $+++++++++                @+++++++++%                     $+++++++++              ",
"                           +++++++++$                     %+++++++++@                     @+++++++++%               .+++++++++#        $+++++++++                @+++++++++%                     $+++++++++              ",
" *********&                +++++++++$                     %+++++++++@                     @+++++++++%               .+++++++++#        $+++++++++                @+++++++++%                     $+++++++++              ",
"%+++++++++@                +++++++++$                     %+++++++++@                     @+++++++++%               .+++++++++#        $+++++++++                @+++++++++%                     $+++++++++              ",
"%+++++++++@                +++++++++$                     %+++++++++@                     @+++++++++%               .+++++++++#        $+++++++++                @+++++++++%                     $+++++++++              ",
"%+++++++++@                +++++++++$                     %+++++++++@                     @+++++++++%               .+++++++++#        $+++++++++                @+++++++++%                     $+++++++++              ",
"%+++++++++@                +++++++++$                     %+++++++++@                     @+++++++++%               .+++++++++#        $+++++++++                @+++++++++%                     $+++++++++              ",
"]^^^^/++++(                ++++_:^^^<                     %+++++++++@                     @+++++++++%               .+++++++++#        $+++++++++                @+++++++++%                     $+++++++++              ",
"     .+++++++++++++++++++++++++@                          %+++++++++@                     @+++++++++%               .+++++++++#        $+++++++++                @+++++++++%                     $+++++++++              ",
"     .+++++++++++++++++++++++++@                          %+++++++++@                     @+++++++++%               .+++++++++#        $+++++++++                @+++++++++%                     $+++++++++              ",
"     .+++++++++++++++++++++++++@                          %+++++++++@                     @+++++++++%               .+++++++++#        $+++++++++                @+++++++++%                     $+++++++++              ",
"     .+++++++++++++++++++++++++@                          %+++++++++@                     @+++++++++%               .+++++++++#        $+++++++++                @+++++++++%                     $+++++++++              ",
"     .+++++++++++++++++++++++++@                          %+++++++++@                     @+++++++++%               .+++++++++#        $+++++++++                @+++++++++%                     $+++++++++              "};
