/* XPM */
static char * start_xpm[] = {
"50 15 2 1",
" 	c #00AA00",
".	c #F59D00",
"    ...   ........     .     .....  ........      ",
"  ..  ..  ........    . .    .   .  ........      ",
" ..    .     ..      .. ..   .   .     ..         ",
" .           ..      .   .   .   .     ..         ",
" .           ..     .     .  .   .     ..         ",
" ..          ..     .     .  .   .     ..         ",
"  ....       ..     .     .  .....     ..         ",
"     ..      ..     .     .  ..        ..         ",
"      ..     ..     .......  ..        ..         ",
"       .     ..     .     .  . .       ..         ",
"       .     ..     .     .  . ..      ..         ",
"       .     ..     .     .  .  .      ..         ",
" .    ..     ..     .     .  .  .      ..         ",
" ..  ..      ..     .     .  .  ..     ..         ",
"  ....       ..     .     .  .   .     ..         "};
