/* XPM */
static char * start_hover_xpm[] = {
"47 19 3 1",
" 	c None",
".	c #FFFFFF",
"+	c #F59D00",
"...............................................",
".                                             .",
".    +++   ++++++++     +     +++++  ++++++++ .",
".  ++  ++  ++++++++    + +    +   +  ++++++++ .",
". ++    +     ++      ++ ++   +   +     ++    .",
". +           ++      +   +   +   +     ++    .",
". +           ++     +     +  +   +     ++    .",
". ++          ++     +     +  +   +     ++    .",
".  ++++       ++     +     +  +++++     ++    .",
".     ++      ++     +     +  ++        ++    .",
".      ++     ++     +++++++  ++        ++    .",
".       +     ++     +     +  + +       ++    .",
".       +     ++     +     +  + ++      ++    .",
".       +     ++     +     +  +  +      ++    .",
". +    ++     ++     +     +  +  +      ++    .",
". ++  ++      ++     +     +  +  ++     ++    .",
".  ++++       ++     +     +  +   +     ++    .",
".                                             .",
"..............................................."};
