/* XPM */
static char * title_xpm[] = {
"225 84 4 1",
" 	c #00AA00",
".	c #FFFFFF",
"+	c #000000",
"@	c #39BDFF",
"                                                                                                                                                                                                                                 ",
"                                                                                                                                                                                                                                 ",
"                                                                                                                                                                                                                                 ",
"                                                                                                                                                                                                                                 ",
"                                                                                                                                                                                                                                 ",
"                                                                                                                                                                                                                                 ",
"                                                                                                                                                                                                                                 ",
"                                                                                                                                                                                                                                 ",
"                                                                                                                                                                                                                                 ",
"                                                                                                                                                                                                                                 ",
"        ................................        ................................        ........                ........        ........                ........        ........               .........................         ",
"        .++++++++++++++++++++++++++++++.        .++++++++++++++++++++++++++++++.        .++++++ .               .++++++.        .++++++ .               .++++++.        .++++++.              . +++++++++++++++++++++++.         ",
"        .+@@@@@@@@@@@@@@@@@@@@@@@@@@@@+.        .+@@@@@@@@@@@@@@@@@@@@@@@@@@@@+.        .+@@@@@+.               .+@@@@+.        .+@@@@@+.               .+@@@@+.        .+@@@@+.             . +@@@@@@@@@@@@@@@@@@@@@@+.         ",
"        .+@@@@@@@@@@@@@@@@@@@@@@@@@@@@+.        .+@@@@@@@@@@@@@@@@@@@@@@@@@@@@+.        .+@@@@@+ .              .+@@@@+.        .+@@@@@+ .              .+@@@@+.        .+@@@@+.            . +@@@@@@@@@@@@@@@@@@@@@@@+.         ",
"        .+@@@@@@@@@@@@@@@@@@@@@@@@@@@@+.        .+@@@@@@@@@@@@@@@@@@@@@@@@@@@@+.        .+@@@@@@+ .             .+@@@@+.        .+@@@@@@+ .             .+@@@@+.        .+@@@@+.           . +@@@@@@@@@@@@@@@@@@@@@@@@+.         ",
"        .+@@@@@@@@@@@@@@@@@@@@@@@@@@@@+.        .+@@@@@@@@@@@@@@@@@@@@@@@@@@@@+.        .+@@@@@@@+.             .+@@@@+.        .+@@@@@@@+.             .+@@@@+.        .+@@@@+.          . +@@@@@@@@@@@@@@@@@@@@@@@@@+.         ",
"        .+@@@@@@@@@@@@@@@@@@@@@@@@@@@@+.        .+@@@@@@@@@@@@@@@@@@@@@@@@@@@@+.        .+@@@@@@@+ .            .+@@@@+.        .+@@@@@@@+ .            .+@@@@+.        .+@@@@+.         . +@@@@@@@@@@@@@@@@@@@@@@@@@@+.         ",
"        .+@@@@@@@@@@@@@@@@@@@@@@@@@@@@+.        .+@@@@@@@@@@@@@@@@@@@@@@@@@@@@+.        .+@@@@@@@@+ .           .+@@@@+.        .+@@@@@@@@+ .           .+@@@@+.        .+@@@@+.        . +@@@@@@@@@@@@@@@@@@@@@@@@@@@+.         ",
"        .+@@@@@@@@@@@@@@@@@@@@@@@@@@@@+.        .+@@@@@@@@@@@@@@@@@@@@@@@@@@@@+.        .+@@@@@@@@@+.           .+@@@@+.        .+@@@@@@@@@+.           .+@@@@+.        .+@@@@+.        .+@@@@@@@@@@@@@@@@@@@@@@@@@@@@+.         ",
"        .+@@@@@@@@@@@@@@@@@@@@@@@@@@@@+.        .+@@@@@@@@@@@@@@@@@@@@@@@@@@@@+.        .+@@@@@@@@@+ .          .+@@@@+.        .+@@@@@@@@@+ .          .+@@@@+.        .+@@@@+.        .+@@@@@@@@@@@@@@@@@@@@@@@@@@@@+.         ",
"        .+@@@@@@@@@@@@@@@@@@@@@@@@@@@@+.        .+@@@@@@@@@@@@@@@@@@@@@@@@@@@@+.        .+@@@@@@@@@@+ .         .+@@@@+.        .+@@@@@@@@@@+ .         .+@@@@+.        .+@@@@+.        .+@@@@@@@@@@@@@@@@@@@@@@@@@@@@+.         ",
"        .+@@@@@@@@@@@@@@@@@@@@@@@@@@@@+.        .+@@@@@@@@@@@@@@@@@@@@@@@@@@@@+.        .+@@@@@@@@@@@+.         .+@@@@+.        .+@@@@@@@@@@@+.         .+@@@@+.        .+@@@@+.        .+@@@@@@@@@@@@@@@@@@@@@@@@@@@@+.         ",
"        .+@@@@@@@@@@@@@@@@@@@@@@@@@@@@+.        .+@@@@@@@@@@@@@@@@@@@@@@@@@@@@+.        .+@@@@@@@@@@@+ .        .+@@@@+.        .+@@@@@@@@@@@+ .        .+@@@@+.        .+@@@@+.        .+@@@@@@@@@@@@@@@@@@@@@@@@@@@@+.         ",
"        .+@@@@@@@@@@@@@@@@@@@@@@@@@@@@+.        .+@@@@@@@@@@@@@@@@@@@@@@@@@@@@+.        .+@@@@@@@@@@@@+ .       .+@@@@+.        .+@@@@@@@@@@@@+ .       .+@@@@+.        .+@@@@+.        .+@@@@@@@@@@@@@@@@@@@@@@@@@@@@+.         ",
"        .+++++++++++++@@@@+++++++++++++.        .+@@@@+++++++++++++++++++++++++.        .+@@@@@@@@@@@@@+.       .+@@@@+.        .+@@@@@@@@@@@@@+.       .+@@@@+.        .+@@@@+.        .+@@@@+++++++++++++++++++++++++.         ",
"        .............+@@@@+.............        .+@@@@+.........................        .+@@@@@@@@@@@@@+ .      .+@@@@+.        .+@@@@@@@@@@@@@+ .      .+@@@@+.        .+@@@@+.        .+@@@@+.........................         ",
"                    .+@@@@+.                    .+@@@@+.                                .+@@@@@@@@@@@@@@+ .     .+@@@@+.        .+@@@@@@@@@@@@@@+ .     .+@@@@+.        .+@@@@+.        .+@@@@+.                                 ",
"                    .+@@@@+.                    .+@@@@+.                                .+@@@@@@@@@@@@@@@+.     .+@@@@+.        .+@@@@@@@@@@@@@@@+.     .+@@@@+.        .+@@@@+.        .+@@@@+.                                 ",
"                    .+@@@@+.                    .+@@@@+.                                .+@@@@@@@@@@@@@@@+ .    .+@@@@+.        .+@@@@@@@@@@@@@@@+ .    .+@@@@+.        .+@@@@+.        .+@@@@+.                                 ",
"                    .+@@@@+.                    .+@@@@+.                                .+@@@@@@@@@@@@@@@@+ .   .+@@@@+.        .+@@@@@@@@@@@@@@@@+ .   .+@@@@+.        .+@@@@+.        .+@@@@+.                                 ",
"                    .+@@@@+.                    .+@@@@+.                                .+@@@@@@@@@@@@@@@@@+.   .+@@@@+.        .+@@@@@@@@@@@@@@@@@+.   .+@@@@+.        .+@@@@+.        .+@@@@+.                                 ",
"                    .+@@@@+.                    .+@@@@+.                                .+@@@@@@@@@@@@@@@@@+ .  .+@@@@+.        .+@@@@@@@@@@@@@@@@@+ .  .+@@@@+.        .+@@@@+.        .+@@@@+.                                 ",
"                    .+@@@@+.                    .+@@@@+.                                .+@@@@@@@@@@@@@@@@@@+ . .+@@@@+.        .+@@@@@@@@@@@@@@@@@@+ . .+@@@@+.        .+@@@@+.        .+@@@@+.                                 ",
"                    .+@@@@+.                    .+@@@@+.                                .+@@@@@@@@@@@@@@@@@@@+. .+@@@@+.        .+@@@@@@@@@@@@@@@@@@@+. .+@@@@+.        .+@@@@+.        .+@@@@+.                                 ",
"                    .+@@@@+.                    .+@@@@+.........................        .+@@@@@@@@@@@@@@@@@@@+ ..+@@@@+.        .+@@@@@@@@@@@@@@@@@@@+ ..+@@@@+.        .+@@@@+.        .+@@@@+..................                ",
"                    .+@@@@+.                    .+@@@@+++++++++++++++++++++++++.        .+@@@@@@@@@@@@@@@@@@@@++.+@@@@+.        .+@@@@@@@@@@@@@@@@@@@@++.+@@@@+.        .+@@@@+.        .+@@@@++++++++++++++++++ .               ",
"                    .+@@@@+.                    .+@@@@@@@@@@@@@@@@@@@@@@@@@@@@+.        .+@@@@@@@@@@@@@@@@@@@@@+.+@@@@+.        .+@@@@@@@@@@@@@@@@@@@@@+.+@@@@+.        .+@@@@+.        .+@@@@@@@@@@@@@@@@@@@@@@+ .              ",
"                    .+@@@@+.                    .+@@@@@@@@@@@@@@@@@@@@@@@@@@@@+.        .+@@@@+@@@@@@@@@@@@@@@@+++@@@@+.        .+@@@@+@@@@@@@@@@@@@@@@+++@@@@+.        .+@@@@+.        .+@@@@@@@@@@@@@@@@@@@@@@@+ .             ",
"                    .+@@@@+.                    .+@@@@@@@@@@@@@@@@@@@@@@@@@@@@+.        .+@@@@++@@@@@@@@@@@@@@@@++@@@@+.        .+@@@@++@@@@@@@@@@@@@@@@++@@@@+.        .+@@@@+.        .+@@@@@@@@@@@@@@@@@@@@@@@@+ .            ",
"                    .+@@@@+.                    .+@@@@@@@@@@@@@@@@@@@@@@@@@@@@+.        .+@@@@++@@@@@@@@@@@@@@@@@+@@@@+.        .+@@@@++@@@@@@@@@@@@@@@@@+@@@@+.        .+@@@@+.        .+@@@@@@@@@@@@@@@@@@@@@@@@@+ .           ",
"                    .+@@@@+.                    .+@@@@@@@@@@@@@@@@@@@@@@@@@@@@+.        .+@@@@+++@@@@@@@@@@@@@@@@+@@@@+.        .+@@@@+++@@@@@@@@@@@@@@@@+@@@@+.        .+@@@@+.        .+@@@@@@@@@@@@@@@@@@@@@@@@@@+ .          ",
"                    .+@@@@+.                    .+@@@@@@@@@@@@@@@@@@@@@@@@@@@@+.        .+@@@@+.++@@@@@@@@@@@@@@@@@@@@+.        .+@@@@+.++@@@@@@@@@@@@@@@@@@@@+.        .+@@@@+.        .+@@@@@@@@@@@@@@@@@@@@@@@@@@@+ .         ",
"                    .+@@@@+.                    .+@@@@@@@@@@@@@@@@@@@@@@@@@@@@+.        .+@@@@+..+@@@@@@@@@@@@@@@@@@@@+.        .+@@@@+..+@@@@@@@@@@@@@@@@@@@@+.        .+@@@@+.        . +@@@@@@@@@@@@@@@@@@@@@@@@@@@+.         ",
"                    .+@@@@+.                    .+@@@@@@@@@@@@@@@@@@@@@@@@@@@@+.        .+@@@@+.. +@@@@@@@@@@@@@@@@@@@+.        .+@@@@+.. +@@@@@@@@@@@@@@@@@@@+.        .+@@@@+.         . +@@@@@@@@@@@@@@@@@@@@@@@@@@+.         ",
"                    .+@@@@+.                    .+@@@@@@@@@@@@@@@@@@@@@@@@@@@@+.        .+@@@@+. . +@@@@@@@@@@@@@@@@@@+.        .+@@@@+. . +@@@@@@@@@@@@@@@@@@+.        .+@@@@+.          . +@@@@@@@@@@@@@@@@@@@@@@@@@+.         ",
"                    .+@@@@+.                    .+@@@@@@@@@@@@@@@@@@@@@@@@@@@@+.        .+@@@@+.  .+@@@@@@@@@@@@@@@@@@+.        .+@@@@+.  .+@@@@@@@@@@@@@@@@@@+.        .+@@@@+.           . +@@@@@@@@@@@@@@@@@@@@@@@@+.         ",
"                    .+@@@@+.                    .+@@@@@@@@@@@@@@@@@@@@@@@@@@@@+.        .+@@@@+.  . +@@@@@@@@@@@@@@@@@+.        .+@@@@+.  . +@@@@@@@@@@@@@@@@@+.        .+@@@@+.            . +@@@@@@@@@@@@@@@@@@@@@@@+.         ",
"                    .+@@@@+.                    .+@@@@@@@@@@@@@@@@@@@@@@@@@@@@+.        .+@@@@+.   . +@@@@@@@@@@@@@@@@+.        .+@@@@+.   . +@@@@@@@@@@@@@@@@+.        .+@@@@+.             . +@@@@@@@@@@@@@@@@@@@@@@+.         ",
"                    .+@@@@+.                    .+@@@@+++++++++++++++++++++++++.        .+@@@@+.    .+@@@@@@@@@@@@@@@@+.        .+@@@@+.    .+@@@@@@@@@@@@@@@@+.        .+@@@@+.              . ++++++++++++++++++@@@@+.         ",
"                    .+@@@@+.                    .+@@@@+.........................        .+@@@@+.    . +@@@@@@@@@@@@@@@+.        .+@@@@+.    . +@@@@@@@@@@@@@@@+.        .+@@@@+.               ..................+@@@@+.         ",
"                    .+@@@@+.                    .+@@@@+.                                .+@@@@+.     . +@@@@@@@@@@@@@@+.        .+@@@@+.     . +@@@@@@@@@@@@@@+.        .+@@@@+.                                .+@@@@+.         ",
"                    .+@@@@+.                    .+@@@@+.                                .+@@@@+.      .+@@@@@@@@@@@@@@+.        .+@@@@+.      .+@@@@@@@@@@@@@@+.        .+@@@@+.                                .+@@@@+.         ",
"                    .+@@@@+.                    .+@@@@+.                                .+@@@@+.      . +@@@@@@@@@@@@@+.        .+@@@@+.      . +@@@@@@@@@@@@@+.        .+@@@@+.                                .+@@@@+.         ",
"                    .+@@@@+.                    .+@@@@+.                                .+@@@@+.       . +@@@@@@@@@@@@+.        .+@@@@+.       . +@@@@@@@@@@@@+.        .+@@@@+.                                .+@@@@+.         ",
"                    .+@@@@+.                    .+@@@@+.                                .+@@@@+.        .+@@@@@@@@@@@@+.        .+@@@@+.        .+@@@@@@@@@@@@+.        .+@@@@+.                                .+@@@@+.         ",
"                    .+@@@@+.                    .+@@@@+.                                .+@@@@+.        . +@@@@@@@@@@@+.        .+@@@@+.        . +@@@@@@@@@@@+.        .+@@@@+.                                .+@@@@+.         ",
"                    .+@@@@+.                    .+@@@@+.                                .+@@@@+.         . +@@@@@@@@@@+.        .+@@@@+.         . +@@@@@@@@@@+.        .+@@@@+.                                .+@@@@+.         ",
"                    .+@@@@+.                    .+@@@@+.                                .+@@@@+.          .+@@@@@@@@@@+.        .+@@@@+.          .+@@@@@@@@@@+.        .+@@@@+.                                .+@@@@+.         ",
"                    .+@@@@+.                    .+@@@@+.........................        .+@@@@+.          . +@@@@@@@@@+.        .+@@@@+.          . +@@@@@@@@@+.        .+@@@@+.        .........................+@@@@+.         ",
"                    .+@@@@+.                    .+@@@@+++++++++++++++++++++++++.        .+@@@@+.           . +@@@@@@@@+.        .+@@@@+.           . +@@@@@@@@+.        .+@@@@+.        .+++++++++++++++++++++++++@@@@+.         ",
"                    .+@@@@+.                    .+@@@@@@@@@@@@@@@@@@@@@@@@@@@@+.        .+@@@@+.            .+@@@@@@@@+.        .+@@@@+.            .+@@@@@@@@+.        .+@@@@+.        .+@@@@@@@@@@@@@@@@@@@@@@@@@@@@+.         ",
"                    .+@@@@+.                    .+@@@@@@@@@@@@@@@@@@@@@@@@@@@@+.        .+@@@@+.            . +@@@@@@@+.        .+@@@@+.            . +@@@@@@@+.        .+@@@@+.        .+@@@@@@@@@@@@@@@@@@@@@@@@@@@@+.         ",
"                    .+@@@@+.                    .+@@@@@@@@@@@@@@@@@@@@@@@@@@@@+.        .+@@@@+.             . +@@@@@@+.        .+@@@@+.             . +@@@@@@+.        .+@@@@+.        .+@@@@@@@@@@@@@@@@@@@@@@@@@@@@+.         ",
"                    .+@@@@+.                    .+@@@@@@@@@@@@@@@@@@@@@@@@@@@@+.        .+@@@@+.              .+@@@@@@+.        .+@@@@+.              .+@@@@@@+.        .+@@@@+.        .+@@@@@@@@@@@@@@@@@@@@@@@@@@@@+.         ",
"                    .+@@@@+.                    .+@@@@@@@@@@@@@@@@@@@@@@@@@@@@+.        .+@@@@+.              . +@@@@@+.        .+@@@@+.              . +@@@@@+.        .+@@@@+.        .+@@@@@@@@@@@@@@@@@@@@@@@@@@@@+.         ",
"                    .+@@@@+.                    .+@@@@@@@@@@@@@@@@@@@@@@@@@@@@+.        .+@@@@+.               . +@@@@+.        .+@@@@+.               . +@@@@+.        .+@@@@+.        .+@@@@@@@@@@@@@@@@@@@@@@@@@@@@+.         ",
"                    .+@@@@+.                    .+@@@@@@@@@@@@@@@@@@@@@@@@@@@@+.        .+@@@@+.                .+@@@@+.        .+@@@@+.                .+@@@@+.        .+@@@@+.        .+@@@@@@@@@@@@@@@@@@@@@@@@@@@+ .         ",
"                    .+@@@@+.                    .+@@@@@@@@@@@@@@@@@@@@@@@@@@@@+.        .+@@@@+.                .+@@@@+.        .+@@@@+.                .+@@@@+.        .+@@@@+.        .+@@@@@@@@@@@@@@@@@@@@@@@@@@+ .          ",
"                    .+@@@@+.                    .+@@@@@@@@@@@@@@@@@@@@@@@@@@@@+.        .+@@@@+.                .+@@@@+.        .+@@@@+.                .+@@@@+.        .+@@@@+.        .+@@@@@@@@@@@@@@@@@@@@@@@@@+ .           ",
"                    .+@@@@+.                    .+@@@@@@@@@@@@@@@@@@@@@@@@@@@@+.        .+@@@@+.                .+@@@@+.        .+@@@@+.                .+@@@@+.        .+@@@@+.        .+@@@@@@@@@@@@@@@@@@@@@@@@+ .            ",
"                    .+@@@@+.                    .+@@@@@@@@@@@@@@@@@@@@@@@@@@@@+.        .+@@@@+.                .+@@@@+.        .+@@@@+.                .+@@@@+.        .+@@@@+.        .+@@@@@@@@@@@@@@@@@@@@@@@+ .             ",
"                    .+@@@@+.                    .+@@@@@@@@@@@@@@@@@@@@@@@@@@@@+.        .+@@@@+.                .+@@@@+.        .+@@@@+.                .+@@@@+.        .+@@@@+.        .+@@@@@@@@@@@@@@@@@@@@@@+ .              ",
"                    .++++++.                    .++++++++++++++++++++++++++++++.        .++++++.                .++++++.        .++++++.                .++++++.        .++++++.        .+++++++++++++++++++++++ .               ",
"                    ........                    ................................        ........                ........        ........                ........        ........        .........................                ",
"                                                                                                                                                                                                                                 ",
"                                                                                                                                                                                                                                 ",
"                                                                                                                                                                                                                                 ",
"                                                                                                                                                                                                                                 ",
"                                                                                                                                                                                                                                 ",
"                                                                                                                                                                                                                                 ",
"                                                                                                                                                                                                                                 ",
"                                                                                                                                                                                                                                 ",
"                                                                                                                                                                                                                                 ",
"                                                                                                                                                                                                                                 "};
