/* XPM */
static char * r0_xpm[] = {
"66 50 100 2",
"  	c #000000",
". 	c #2E2E2E",
"+ 	c #303030",
"@ 	c #939393",
"# 	c #7B7B7B",
"$ 	c #BBBBBB",
"% 	c #CECECE",
"& 	c #D9D9D9",
"* 	c #DBDBDB",
"= 	c #B4B4B4",
"- 	c #7E7E7E",
"; 	c #525252",
"> 	c #292929",
", 	c #6A6A6A",
"' 	c #B7B7B7",
") 	c #F1F1F1",
"! 	c #FEFEFE",
"~ 	c #FFFFFF",
"{ 	c #EDEDED",
"] 	c #686868",
"^ 	c #313131",
"/ 	c #C1C1C1",
"( 	c #EFEFEF",
"_ 	c #ECECEC",
": 	c #343434",
"< 	c #BEBEBE",
"[ 	c #2D2D2D",
"} 	c #424242",
"| 	c #B6B6B6",
"1 	c #868686",
"2 	c #E9E9E9",
"3 	c #707070",
"4 	c #6F6F6F",
"5 	c #3B3B3B",
"6 	c #AEAEAE",
"7 	c #FAFAFA",
"8 	c #797979",
"9 	c #4E4E4E",
"0 	c #D0D0D0",
"a 	c #5C5C5C",
"b 	c #FCFCFC",
"c 	c #F8F8F8",
"d 	c #585858",
"e 	c #D3D3D3",
"f 	c #F9F9F9",
"g 	c #696969",
"h 	c #CCCCCC",
"i 	c #B8B8B8",
"j 	c #BFBFBF",
"k 	c #353535",
"l 	c #F2F2F2",
"m 	c #828282",
"n 	c #AFAFAF",
"o 	c #3A3A3A",
"p 	c #FBFBFB",
"q 	c #3C3C3C",
"r 	c #F4F4F4",
"s 	c #484848",
"t 	c #E1E1E1",
"u 	c #767676",
"v 	c #B1B1B1",
"w 	c #2A2A2A",
"x 	c #B5B5B5",
"y 	c #CFCFCF",
"z 	c #8F8F8F",
"A 	c #FDFDFD",
"B 	c #F7F7F7",
"C 	c #3F3F3F",
"D 	c #606060",
"E 	c #EEEEEE",
"F 	c #404040",
"G 	c #2F2F2F",
"H 	c #DFDFDF",
"I 	c #969696",
"J 	c #464646",
"K 	c #D8D8D8",
"L 	c #C3C3C3",
"M 	c #878787",
"N 	c #F0F0F0",
"O 	c #959595",
"P 	c #979797",
"Q 	c #F5F5F5",
"R 	c #757575",
"S 	c #545454",
"T 	c #E4E4E4",
"U 	c #7A7A7A",
"V 	c #4A4A4A",
"W 	c #A9A9A9",
"X 	c #F6F6F6",
"Y 	c #E2E2E2",
"Z 	c #8B8B8B",
"` 	c #333333",
" .	c #2C2C2C",
"..	c #474747",
"+.	c #737373",
"@.	c #999999",
"#.	c #848484",
"$.	c #787878",
"%.	c #898989",
"&.	c #8E8E8E",
"                                                                                                                                    ",
"                                                                                                                                    ",
"                                                                    . + +                                                           ",
"                                                            @ # $ % & * * = - ;                                                     ",
"                                                      > , ' ) ! ~ ~ ~ ~ ~ ~ ! { = ]                                                 ",
"                                                    ^ / ( ~ ~ ~ ~ ~ ~ ~ ~ ~ ~ ~ ~ _ = :                                             ",
"                                                  > < ~ ~ ~ ~ ~ ~ ~ ~ ~ ~ ~ ~ ~ ~ ~ ! < [                                           ",
"                                                } < ~ ~ ~ ~ ~ ~ ~ ~ ~ ~ ~ ~ ~ ~ ~ ~ ~ ! |                                           ",
"                                                1 ! ~ ~ ~ ~ ~ ~ ~ ~ ~ ~ ~ ~ ~ ~ ~ ~ ~ ~ 2 3                                         ",
"                                              4 ) ~ ~ ~ ~ ~ ~ ~ ~ ~ ~ ~ ~ ~ ~ ~ ~ ~ ~ ~ ~ { 5                                       ",
"                                              6 ! ~ ~ ~ ~ ~ ~ ~ ~ ~ ~ ~ ~ ~ ~ ~ ~ ~ ~ ~ ~ 7 8                                       ",
"                                            9 ) ~ ~ ~ ~ ~ ~ ~ ~ ~ ~ ~ ~ ~ ~ ~ ~ ~ ~ ~ ~ ~ ~ 0                                       ",
"                                            a b ~ ~ ~ ~ ~ ~ ~ ~ ~ ~ ~ ~ ~ ~ ~ ~ ~ ~ ~ ~ ~ ~ c d                                     ",
"                                          [ e ! ~ ~ ~ ~ ~ ~ ~ ~ ~ ~ ~ ~ ~ ~ ~ ~ ~ ~ ~ ~ ~ ~ f g                                     ",
"                                            h ~ ~ ~ ~ ~ ~ ~ ~ ~ ~ ~ ~ ~ ~ ~ ~ ~ ~ ~ ~ ~ ~ ~ ~ i                                     ",
"                                            j ~ ~ ~ ~ ~ ~ ~ ~ ~ ~ ~ ~ ~ ~ ~ ~ ~ ~ ~ ~ ~ ~ ~ ~ $                                     ",
"                                          k l ~ ~ ~ ~ ~ ~ ~ ~ ~ ~ ~ ~ ~ ~ ~ ~ ~ ~ ~ ~ ~ ~ ~ ~ =                                     ",
"                                          m b ~ ~ ~ ~ ~ ~ ~ ~ ~ ~ ~ ~ ~ ~ ~ ~ ~ ~ ~ ~ ~ ~ ~ ~ n                                     ",
"                                          o p ~ ~ ~ ~ ~ ~ ~ ~ ~ ~ ~ ~ ~ ~ ~ ~ ~ ~ ~ ~ ~ ~ ~ ~ _                                     ",
"                                          q p ~ ~ ~ ~ ~ ~ ~ ~ ~ ~ ~ ~ ~ ~ ~ ~ ~ ~ ~ ~ ~ ~ ~ ~ r                                     ",
"                                          q p ~ ~ ~ ~ ~ ~ ~ ~ ~ ~ ~ ~ ~ ~ ~ ~ ~ ~ ~ ~ ~ ~ ~ ~ r                                     ",
"                                          q p ~ ~ ~ ~ ~ ~ ~ ~ ~ ~ ~ ~ ~ ~ ~ ~ ~ ~ ~ ~ ~ ~ ~ ~ r                                     ",
"                                          q p ~ ~ ~ ~ ~ ~ ~ ~ ~ ~ ~ ~ ~ ~ ~ ~ ~ ~ ~ ~ ~ ~ ~ ~ r                                     ",
"                                          q p ~ ~ ~ ~ ~ ~ ~ ~ ~ ~ ~ ~ ~ ~ ~ ~ ~ ~ ~ ~ ~ ~ ~ ~ r                                     ",
"                                          q p ~ ~ ~ ~ ~ ~ ~ ~ ~ ~ ~ ~ ~ ~ ~ ~ ~ ~ ~ ~ ~ ~ ~ ~ r                                     ",
"                                          q p ~ ~ ~ ~ ~ ~ ~ ~ ~ ~ ~ ~ ~ ~ ~ ~ ~ ~ ~ ~ ~ ~ ~ ~ r                                     ",
"                                          s p ~ ~ ~ ~ ~ ~ ~ ~ ~ ~ ~ ~ ~ ~ ~ ~ ~ ~ ~ ~ ~ ~ ~ ~ t                                     ",
"                                          u b ~ ~ ~ ~ ~ ~ ~ ~ ~ ~ ~ ~ ~ ~ ~ ~ ~ ~ ~ ~ ~ ~ ~ ~ v                                     ",
"                                          w * ~ ~ ~ ~ ~ ~ ~ ~ ~ ~ ~ ~ ~ ~ ~ ~ ~ ~ ~ ~ ~ ~ ~ ~ x                                     ",
"                                            / ~ ~ ~ ~ ~ ~ ~ ~ ~ ~ ~ ~ ~ ~ ~ ~ ~ ~ ~ ~ ~ ~ ~ ~ <                                     ",
"                                            y ~ ~ ~ ~ ~ ~ ~ ~ ~ ~ ~ ~ ~ ~ ~ ~ ~ ~ ~ ~ ~ ~ ~ ! y                                     ",
"                                            z A ~ ~ ~ ~ ~ ~ ~ ~ ~ ~ ~ ~ ~ ~ ~ ~ ~ ~ ~ ~ ~ ~ B C                                     ",
"                                            D A ~ ~ ~ ~ ~ ~ ~ ~ ~ ~ ~ ~ ~ ~ ~ ~ ~ ~ ~ ~ ~ ~ E F                                     ",
"                                            G H ~ ~ ~ ~ ~ ~ ~ ~ ~ ~ ~ ~ ~ ~ ~ ~ ~ ~ ~ ~ ~ ~ <                                       ",
"                                              I ! ~ ~ ~ ~ ~ ~ ~ ~ ~ ~ ~ ~ ~ ~ ~ ~ ~ ~ ~ ~ p u                                       ",
"                                              J K ~ ~ ~ ~ ~ ~ ~ ~ ~ ~ ~ ~ ~ ~ ~ ~ ~ ~ ~ ! L                                         ",
"                                                M r ~ ~ ~ ~ ~ ~ ~ ~ ~ ~ ~ ~ ~ ~ ~ ~ ~ ~ N [                                         ",
"                                                  O r ~ ~ ~ ~ ~ ~ ~ ~ ~ ~ ~ ~ ~ ~ ~ ~ ) u                                           ",
"                                                    P Q ~ ~ ~ ~ ~ ~ ~ ~ ~ ~ ~ ~ ~ ~ l R                                             ",
"                                                    S M T ~ ~ ~ ~ ~ ~ ~ ~ ~ ~ ~ ~ L U                                               ",
"                                                        V W 2 X ~ ~ ~ ~ ~ ~ t Y Z `                                                 ",
"                                                           ...+.@.#.$.U %.&.G k                                                     ",
"                                                                                                                                    ",
"                                                                                                                                    ",
"                                                                                                                                    ",
"                                                                                                                                    ",
"                                                                                                                                    ",
"                                                                                                                                    ",
"                                                                                                                                    ",
"                                                                                                                                    "};
