/* XPM */
static char * r1_xpm[] = {
"66 50 12 1",
" 	c #000000",
".	c #5B5B5B",
"+	c #777777",
"@	c #787878",
"#	c #3B3B3B",
"$	c #C7C7C7",
"%	c #FFFFFF",
"&	c #858585",
"*	c #C6C6C6",
"=	c #575757",
"-	c #727272",
";	c #383838",
"                                                                  ",
"                                                                  ",
"                                                                  ",
"                                                                  ",
"                                                                  ",
"                             .++++++++@#                          ",
"                             $%%%%%%%%%&                          ",
"                             *%%%%%%%%%&                          ",
"                             *%%%%%%%%%&                          ",
"                             *%%%%%%%%%&                          ",
"                             *%%%%%%%%%&                          ",
"                             *%%%%%%%%%&                          ",
"                             *%%%%%%%%%&                          ",
"                             *%%%%%%%%%&                          ",
"                             *%%%%%%%%%&                          ",
"                             *%%%%%%%%%&                          ",
"                             *%%%%%%%%%&                          ",
"                             *%%%%%%%%%&                          ",
"                             *%%%%%%%%%&                          ",
"                             *%%%%%%%%%&                          ",
"                             *%%%%%%%%%&                          ",
"                             *%%%%%%%%%&                          ",
"                             *%%%%%%%%%&                          ",
"                             *%%%%%%%%%&                          ",
"                             *%%%%%%%%%&                          ",
"                             *%%%%%%%%%&                          ",
"                             *%%%%%%%%%&                          ",
"                             *%%%%%%%%%&                          ",
"                             *%%%%%%%%%&                          ",
"                             *%%%%%%%%%&                          ",
"                             *%%%%%%%%%&                          ",
"                             *%%%%%%%%%&                          ",
"                             *%%%%%%%%%&                          ",
"                             *%%%%%%%%%&                          ",
"                             *%%%%%%%%%&                          ",
"                             *%%%%%%%%%&                          ",
"                             *%%%%%%%%%&                          ",
"                             *%%%%%%%%%&                          ",
"                             *%%%%%%%%%&                          ",
"                             $%%%%%%%%%&                          ",
"                             =---------;                          ",
"                                                                  ",
"                                                                  ",
"                                                                  ",
"                                                                  ",
"                                                                  ",
"                                                                  ",
"                                                                  ",
"                                                                  ",
"                                                                  "};
