/* XPM */
static char * r2_xpm[] = {
"71 50 134 2",
"  	c #000000",
". 	c #3A3A3A",
"+ 	c #5D5D5D",
"@ 	c #414141",
"# 	c #323232",
"$ 	c #4C4C4C",
"% 	c #5B5B5B",
"& 	c #1F1F1F",
"* 	c #494949",
"= 	c #9B9B9B",
"- 	c #B9B9B9",
"; 	c #F4F4F4",
"> 	c #EAEAEA",
", 	c #E7E7E7",
"' 	c #EEEEEE",
") 	c #999999",
"! 	c #8B8B8B",
"~ 	c #393939",
"{ 	c #484848",
"] 	c #C7C7C7",
"^ 	c #EFEFEF",
"/ 	c #F9F9F9",
"( 	c #FFFFFF",
"_ 	c #D6D6D6",
": 	c #595959",
"< 	c #030303",
"[ 	c #A4A4A4",
"} 	c #FAFAFA",
"| 	c #E2E2E2",
"1 	c #474747",
"2 	c #090909",
"3 	c #919191",
"4 	c #F8F8F8",
"5 	c #2F2F2F",
"6 	c #A1A1A1",
"7 	c #D8D8D8",
"8 	c #4F4F4F",
"9 	c #D0D0D0",
"0 	c #B5B5B5",
"a 	c #040404",
"b 	c #181818",
"c 	c #AEAEAE",
"d 	c #8D8D8D",
"e 	c #DFDFDF",
"f 	c #4B4B4B",
"g 	c #868686",
"h 	c #737373",
"i 	c #373737",
"j 	c #DBDBDB",
"k 	c #949494",
"l 	c #D3D3D3",
"m 	c #EDEDED",
"n 	c #E5E5E5",
"o 	c #A7A7A7",
"p 	c #343434",
"q 	c #E3E3E3",
"r 	c #7C7C7C",
"s 	c #2A2A2A",
"t 	c #2B2B2B",
"u 	c #777777",
"v 	c #F0F0F0",
"w 	c #E4E4E4",
"x 	c #353535",
"y 	c #7F7F7F",
"z 	c #010101",
"A 	c #333333",
"B 	c #ECECEC",
"C 	c #434343",
"D 	c #545454",
"E 	c #A3A3A3",
"F 	c #252525",
"G 	c #3B3B3B",
"H 	c #E8E8E8",
"I 	c #D4D4D4",
"J 	c #818181",
"K 	c #F3F3F3",
"L 	c #A0A0A0",
"M 	c #3E3E3E",
"N 	c #E9E9E9",
"O 	c #848484",
"P 	c #1B1B1B",
"Q 	c #969696",
"R 	c #1D1D1D",
"S 	c #9A9A9A",
"T 	c #A2A2A2",
"U 	c #686868",
"V 	c #F6F6F6",
"W 	c #4D4D4D",
"X 	c #8A8A8A",
"Y 	c #4E4E4E",
"Z 	c #131313",
"` 	c #C4C4C4",
" .	c #CCCCCC",
"..	c #3D3D3D",
"+.	c #C8C8C8",
"@.	c #FEFEFE",
"#.	c #B4B4B4",
"$.	c #060606",
"%.	c #828282",
"&.	c #E6E6E6",
"*.	c #262626",
"=.	c #101010",
"-.	c #E0E0E0",
";.	c #C9C9C9",
">.	c #EBEBEB",
",.	c #838383",
"'.	c #B2B2B2",
").	c #FCFCFC",
"!.	c #383838",
"~.	c #575757",
"{.	c #CDCDCD",
"].	c #6F6F6F",
"^.	c #E1E1E1",
"/.	c #979797",
"(.	c #FDFDFD",
"_.	c #FBFBFB",
":.	c #F1F1F1",
"<.	c #C0C0C0",
"[.	c #3C3C3C",
"}.	c #2C2C2C",
"|.	c #2D2D2D",
"1.	c #BABABA",
"2.	c #222222",
"3.	c #CACACA",
"4.	c #747474",
"5.	c #F2F2F2",
"6.	c #C3C3C3",
"7.	c #F7F7F7",
"8.	c #0F0F0F",
"9.	c #888888",
"0.	c #D9D9D9",
"a.	c #A5A5A5",
"b.	c #BEBEBE",
"c.	c #DEDEDE",
"                                                                                                                                              ",
"                                                                                                                                              ",
"                                                                . + @ # $ %                                                                   ",
"                                                          & * = - ; > , ' > ) ! ~                                                             ",
"                                                        { ] ^ / ( ( ( ( ( ( ( / _ ) :                                                         ",
"                                                    < [ _ ( ( ( ( ( ( ( ( ( ( ( ( } | 1                                                       ",
"                                                  2 3 4 ( ( ( ( ( ( ( ( ( ( ( ( ( ( ( _ 5                                                     ",
"                                                  6 / ( ( ( ( ( ( ( ( ( ( ( ( ( ( ( ( ( 7 8                                                   ",
"                                                { 9 ( ( ( ( ( ( ( ( ( ( ( ( ( ( ( ( ( ( ( 0 a                                                 ",
"                                              b c ( ( ( ( ( ( ( ( ( ( ( ( ( ( ( ( ( ( ( ( / d                                                 ",
"                                              % > ( ( ( ( ( ( ( ( ( ( ( ( ( ( ( ( ( ( ( ( ( e f                                               ",
"                                              g ( ( ( ( ( ( ( ( ( ( ( ( ( ( ( ( ( ( ( ( ( ( > h                                               ",
"                                            i j ( ( ( ( ( ( ( ( ( ( ( ( ( ( ( ( ( ( ( ( ( ( ( k                                               ",
"                                              l ( ( ( ( ( ( ( ( ( m n n > ( ( ( ( ( ( ( ( ( ( o                                               ",
"                                            p q ( ( ( ( ( ( ( ( ' r s t u v ( ( ( ( ( ( ( ( ( w x                                             ",
"                                            y ( ( ( ( ( ( ( ( ( g z     A | ( ( ( ( ( ( ( ( ( B C                                             ",
"                                            D / ( ( ( ( ( ( ( ( E F     G H ( ( ( ( ( ( ( ( ( v *                                             ",
"                                              I ( ( ( ( ( ( ( ( B D     J K ( ( ( ( ( ( ( ( ( L &                                             ",
"                                            M N ( ( ( ( ( ( ( ( 4 O   P ] ( ( ( ( ( ( ( ( ( ( Q                                               ",
"                                            R S ( ( ( ( ( ( ( ( T a   U V ( ( ( ( ( ( ( ( ( n W                                               ",
"                                              X K ( ( ( ( ( ( B Y   Z ` ( ( ( ( ( ( ( ( ( (  .@                                               ",
"                                              ..+.@.( ( ( ( ( #.$.  % 4 ( ( ( ( ( ( ( ( ( ; %.                                                ",
"                                                G &.( ( ( ( N *.  =.-.( ( ( ( ( ( ( ( ( ( ;.G                                                 ",
"                                                  U >.( ( } ,.    '.).( ( ( ( ( ( ( ( ( V J                                                   ",
"                                                    % B ( l !.  ~.w ( ( ( ( ( ( ( ( ( ( {...                                                  ",
"                                                      ].| !     E ).( ( ( ( ( ( ( ( ( / ,.                                                    ",
"                                                      a ..@   M ^.( ( ( ( ( ( ( ( ( ( l .                                                     ",
"                                                              /.(.( ( ( ( ( ( ( ( ( _.g                                                       ",
"                                                            + :.( ( ( ( ( ( ( ( ( ( <.[.}.}.}.|.2                                             ",
"                                                            1.( ( ( ( ( ( ( ( ( ( @.j n n n n n ].                                            ",
"                                                          u K ( ( ( ( ( ( ( ( ( ( ( ( ( ( ( ( ( g                                             ",
"                                                        2.3.( ( ( ( ( ( ( ( ( ( ( ( ( ( ( ( ( ( g                                             ",
"                                                        4.5.( ( ( ( ( ( ( ( ( ( ( ( ( ( ( ( ( ( g                                             ",
"                                                      =.6.( ( ( ( ( ( ( ( ( ( ( ( ( ( ( ( ( ( ( g                                             ",
"                                                      3 7.( ( ( ( ( ( ( ( ( ( ( ( ( ( ( ( ( ( ( g                                             ",
"                                                    8.e ( ( ( ( ( ( ( ( ( ( ( ( ( ( ( ( ( ( ( ( g                                             ",
"                                                    9._.( ( ( ( ( ( ( ( ( ( ( ( ( ( ( ( ( ( ( ( g                                             ",
"                                                    0.( ( ( ( ( ( ( ( ( ( ( ( ( ( ( ( ( ( ( ( ( g                                             ",
"                                                  a.} ( ( ( ( ( ( ( ( ( ( ( ( ( ( ( ( ( ( ( ( ( g                                             ",
"                                                { b.c.c.c.c.c.c.c.c.c.c.c.c.c.c.c.c.c.c.c.c.c.c.4.                                            ",
"                                                                                                                                              ",
"                                                                                                                                              ",
"                                                                                                                                              ",
"                                                                                                                                              ",
"                                                                                                                                              ",
"                                                                                                                                              ",
"                                                                                                                                              ",
"                                                                                                                                              ",
"                                                                                                                                              ",
"                                                                                                                                              "};
