/* XPM */
static char * r3_xpm[] = {
"71 50 117 2",
"  	c #000000",
". 	c #656565",
"+ 	c #8A8A8A",
"@ 	c #8C8C8C",
"# 	c #8D8D8D",
"$ 	c #898989",
"% 	c #090909",
"& 	c #858585",
"* 	c #FFFFFF",
"= 	c #FEFEFE",
"- 	c #747474",
"; 	c #DCDCDC",
"> 	c #212121",
", 	c #868686",
"' 	c #070707",
") 	c #ECECEC",
"! 	c #444444",
"~ 	c #A6A6A6",
"{ 	c #EBEBEB",
"] 	c #727272",
"^ 	c #D2D2D2",
"/ 	c #1D1D1D",
"( 	c #F8F8F8",
"_ 	c #D5D5D5",
": 	c #454545",
"< 	c #848484",
"[ 	c #CECECE",
"} 	c #CDCDCD",
"| 	c #E1E1E1",
"1 	c #A4A4A4",
"2 	c #1A1A1A",
"3 	c #131313",
"4 	c #252525",
"5 	c #B9B9B9",
"6 	c #EEEEEE",
"7 	c #434343",
"8 	c #6C6C6C",
"9 	c #F6F6F6",
"0 	c #B6B6B6",
"a 	c #ACACAC",
"b 	c #494949",
"c 	c #1B1B1B",
"d 	c #D4D4D4",
"e 	c #646464",
"f 	c #393939",
"g 	c #7A7A7A",
"h 	c #EFEFEF",
"i 	c #F3F3F3",
"j 	c #C0C0C0",
"k 	c #1E1E1E",
"l 	c #BBBBBB",
"m 	c #FDFDFD",
"n 	c #B4B4B4",
"o 	c #3F3F3F",
"p 	c #BCBCBC",
"q 	c #C5C5C5",
"r 	c #BABABA",
"s 	c #2E2E2E",
"t 	c #060606",
"u 	c #0C0C0C",
"v 	c #8E8E8E",
"w 	c #E7E7E7",
"x 	c #676767",
"y 	c #707070",
"z 	c #A0A0A0",
"A 	c #FBFBFB",
"B 	c #AFAFAF",
"C 	c #121212",
"D 	c #383838",
"E 	c #797979",
"F 	c #9C9C9C",
"G 	c #717171",
"H 	c #767676",
"I 	c #DADADA",
"J 	c #0F0F0F",
"K 	c #909090",
"L 	c #0A0A0A",
"M 	c #C6C6C6",
"N 	c #040404",
"O 	c #818181",
"P 	c #CBCBCB",
"Q 	c #080808",
"R 	c #4B4B4B",
"S 	c #D3D3D3",
"T 	c #888888",
"U 	c #3A3A3A",
"V 	c #2C2C2C",
"W 	c #696969",
"X 	c #DBDBDB",
"Y 	c #585858",
"Z 	c #D9D9D9",
"` 	c #DFDFDF",
" .	c #EAEAEA",
"..	c #575757",
"+.	c #DDDDDD",
"@.	c #1F1F1F",
"#.	c #535353",
"$.	c #939393",
"%.	c #0D0D0D",
"&.	c #363636",
"*.	c #CCCCCC",
"=.	c #D6D6D6",
"-.	c #8F8F8F",
";.	c #F7F7F7",
">.	c #545454",
",.	c #7D7D7D",
"'.	c #272727",
").	c #999999",
"!.	c #9A9A9A",
"~.	c #E6E6E6",
"{.	c #E4E4E4",
"].	c #DEDEDE",
"^.	c #E2E2E2",
"/.	c #ABABAB",
"(.	c #2D2D2D",
"_.	c #323232",
":.	c #4C4C4C",
"                                                                                                                                              ",
"                                                                                                                                              ",
"                                                                                                                                              ",
"                                                    . + + + + + + + + + @ # # # # @ @ @ @ $ %                                                 ",
"                                                    & * * * * * * * * * * * * * * * * * = -                                                   ",
"                                                    & * * * * * * * * * * * * * * * * * ; >                                                   ",
"                                                    & * * * * * * * * * * * * * * * * * , '                                                   ",
"                                                    & * * * * * * * * * * * * * * * * ) !                                                     ",
"                                                    & * * * * * * * * * * * * * * * * ~                                                       ",
"                                                    & * * * * * * * * * * * * * * * { ]                                                       ",
"                                                    & * * * * * * * * * * * * * * * ^ /                                                       ",
"                                                    & * * * * * * * * * * * * * * ( ]                                                         ",
"                                                    & * * * * * * * * * * * * * * _ :                                                         ",
"                                                    < [ [ } | * * * * * * * * * * 1                                                           ",
"                                                    2 3 3 4 5 * * * * * * * * * 6 7                                                           ",
"                                                          8 9 * * * * * * * * = 0                                                             ",
"                                                          a * * * * * * * * * 9 b                                                             ",
"                                                        c d * * * * * * * * * ( e f                                                           ",
"                                                        g h * * * * * * * * * * i j k                                                         ",
"                                                        l * * * * * * * * * * * * m n >                                                       ",
"                                                      o p q 9 = * * * * * * * * * * m r s                                                     ",
"                                                      t u   v # w m * * * * * * * * * ) x                                                     ",
"                                                                y z A * * * * * * * * * B C                                                   ",
"                                                                  D ; * * * * * * * * * { E                                                   ",
"                                                                    F * * * * * * * * * m G                                                   ",
"                                                                    H * * * * * * * * * * I J                                                 ",
"                                                                    K * * * * * * * * * * [ L                                                 ",
"                                                                    K * * * * * * * * * * M t                                                 ",
"                                                    G 4         N O h * * * * * * * * * * P Q                                                 ",
"                                                    R S T 2 U V W i * * * * * * * * * * * X J                                                 ",
"                                                    Y * 9 Z w `  .* * * * * * * * * * * m F %                                                 ",
"                                                    Y * * * * * * * * * * * * * * * * * m 8                                                   ",
"                                                    ..* * * * * * * * * * * * * * * * * +.@.                                                  ",
"                                                    #.* * * * * * * * * * * * * * * * A $.%.                                                  ",
"                                                    #.* * * * * * * * * * * * * * * * p &.                                                    ",
"                                                    #.* * * * * * * * * * * * * * * *.!                                                       ",
"                                                    #.* * * * * * * * * * * * * = =.-.N                                                       ",
"                                                    #.* * * * * * * * * * * * ;.q W                                                           ",
"                                                    >.9 * * * * * * * * * 9 P ,.D                                                             ",
"                                                    '.).!.~.{.].~.].^.6 /.# (.                                                                ",
"                                                          R '.  _.  2 :.(.                                                                    ",
"                                                                                                                                              ",
"                                                                                                                                              ",
"                                                                                                                                              ",
"                                                                                                                                              ",
"                                                                                                                                              ",
"                                                                                                                                              ",
"                                                                                                                                              ",
"                                                                                                                                              ",
"                                                                                                                                              "};
