/* XPM */
static char * r4_xpm[] = {
"77 50 84 1",
" 	c #000000",
".	c #0D0D0D",
"+	c #010101",
"@	c #242424",
"#	c #8E8E8E",
"$	c #C4C4C4",
"%	c #C3C3C3",
"&	c #B6B6B6",
"*	c #252525",
"=	c #C1C1C1",
"-	c #FFFFFF",
";	c #D1D1D1",
">	c #6F6F6F",
",	c #F7F7F7",
"'	c #070707",
")	c #D0D0D0",
"!	c #4E4E4E",
"~	c #F5F5F5",
"{	c #020202",
"]	c #A8A8A8",
"^	c #FBFBFB",
"/	c #1D1D1D",
"(	c #DDDDDD",
"_	c #6C6C6C",
":	c #F6F6F6",
"<	c #333333",
"[	c #727272",
"}	c #F8F8F8",
"|	c #DCDCDC",
"1	c #FDFDFD",
"2	c #B1B1B1",
"3	c #AAAAAA",
"4	c #515151",
"5	c #DEDEDE",
"6	c #FEFEFE",
"7	c #CACACA",
"8	c #606060",
"9	c #B2B2B2",
"0	c #FAFAFA",
"a	c #F4F4F4",
"b	c #7B7B7B",
"c	c #5B5B5B",
"d	c #CBCBCB",
"e	c #212121",
"f	c #6D6D6D",
"g	c #7F7F7F",
"h	c #CCCCCC",
"i	c #616161",
"j	c #F3F3F3",
"k	c #838383",
"l	c #AFAFAF",
"m	c #CECECE",
"n	c #282828",
"o	c #585858",
"p	c #E1E1E1",
"q	c #8D8D8D",
"r	c #818181",
"s	c #898989",
"t	c #484848",
"u	c #2D2D2D",
"v	c #E0E0E0",
"w	c #FCFCFC",
"x	c #F2F2F2",
"y	c #5C5C5C",
"z	c #5E5E5E",
"A	c #5F5F5F",
"B	c #ABABAB",
"C	c #E5E5E5",
"D	c #626262",
"E	c #7C7C7C",
"F	c #707070",
"G	c #636363",
"H	c #4B4B4B",
"I	c #656565",
"J	c #666666",
"K	c #676767",
"L	c #696969",
"M	c #6A6A6A",
"N	c #6B6B6B",
"O	c #6E6E6E",
"P	c #717171",
"Q	c #535353",
"R	c #545454",
"S	c #434343",
"                                                                             ",
"                                                                             ",
"                                                                             ",
"                                .+               @                           ",
"                               +#$%%%%%%%%%%%%%%%&                           ",
"                               *=----------------;                           ",
"                              +>,----------------;                           ",
"                              ')-----------------;                           ",
"                              !~-----------------;                           ",
"                             {]^-----------------;                           ",
"                             /(------------------;                           ",
"                             _:------------------;                           ",
"                            <=-------------------;                           ",
"                            [}--------|1---------;                           ",
"                            2--------:3^---------;                           ",
"                           45-------678^---------;                           ",
"                           90-------abc^---------;                           ",
"                          @5-------6dec^---------;                           ",
"                          fa-------ag c^---------;                           ",
"                         e=--------h* c^---------;                           ",
"                         i~-------jk  c^---------;                           ",
"                         l--------mn  c^---------;                           ",
"                        op-------6qrn c^---------;                           ",
"                        s^---------1t c^---------;                           ",
"                       uv----------wt c^---------;                           ",
"                       bx----------wt y^---------;                           ",
"                       $-----------wt z^---------;                           ",
"                      yj-----------wt A^---------;                           ",
"                      B------------wt 8w---------;                           ",
"                     AC------------wt Dw---------;                           ",
"                     Ex~~~~~~~~~~~:aF Gw---------;                           ",
"                     <GDDDDDDDDDDDGGH Iw---------;                           ",
"                                      Jw---------;                           ",
"                                      Kw---------;                           ",
"                                      Lw---------;                           ",
"                                      Mw---------;                           ",
"                                      Nw---------;                           ",
"                                      fw---------;                           ",
"                                      Ow---------;                           ",
"                                      Fw---------;                           ",
"                                      Pw---------;                           ",
"                                      [^666666666)                           ",
"                                      eQRRRRRRRRRS                           ",
"                                                                             ",
"                                                                             ",
"                                                                             ",
"                                                                             ",
"                                                                             ",
"                                                                             ",
"                                                                             "};
