/* XPM */
static char * r5_xpm[] = {
"79 50 124 2",
"  	c #000000",
". 	c #868686",
"+ 	c #CECECE",
"@ 	c #CDCDCD",
"# 	c #616161",
"$ 	c #B8B8B8",
"% 	c #FFFFFF",
"& 	c #7A7A7A",
"* 	c #353535",
"= 	c #D9D9D9",
"- 	c #6E6E6E",
"; 	c #F7F7F7",
"> 	c #4A4A4A",
", 	c #F2F2F2",
"' 	c #C3C3C3",
") 	c #BEBEBE",
"! 	c #383838",
"~ 	c #EEEEEE",
"{ 	c #545454",
"] 	c #F1F1F1",
"^ 	c #4F4F4F",
"/ 	c #B9B9B9",
"( 	c #FEFEFE",
"_ 	c #E5E5E5",
": 	c #E4E4E4",
"< 	c #6C6C6C",
"[ 	c #C9C9C9",
"} 	c #3B3B3B",
"| 	c #393939",
"1 	c #373737",
"2 	c #363636",
"3 	c #141414",
"4 	c #ECECEC",
"5 	c #D1D1D1",
"6 	c #F3F3F3",
"7 	c #D0D0D0",
"8 	c #8E8E8E",
"9 	c #4B4B4B",
"0 	c #858585",
"a 	c #FDFDFD",
"b 	c #F8F8F8",
"c 	c #8F8F8F",
"d 	c #010101",
"e 	c #ABABAB",
"f 	c #BBBBBB",
"g 	c #434343",
"h 	c #BCBCBC",
"i 	c #CFCFCF",
"j 	c #3C3C3C",
"k 	c #F6F6F6",
"l 	c #9F9F9F",
"m 	c #222222",
"n 	c #E6E6E6",
"o 	c #FCFCFC",
"p 	c #EFEFEF",
"q 	c #818181",
"r 	c #5E5E5E",
"s 	c #A6A6A6",
"t 	c #676767",
"u 	c #929292",
"v 	c #767676",
"w 	c #484848",
"x 	c #DEDEDE",
"y 	c #3A3A3A",
"z 	c #202020",
"A 	c #515151",
"B 	c #999999",
"C 	c #FBFBFB",
"D 	c #F0F0F0",
"E 	c #161616",
"F 	c #A9A9A9",
"G 	c #909090",
"H 	c #C1C1C1",
"I 	c #E2E2E2",
"J 	c #333333",
"K 	c #7C7C7C",
"L 	c #DFDFDF",
"M 	c #1F1F1F",
"N 	c #9C9C9C",
"O 	c #DADADA",
"P 	c #797979",
"Q 	c #E9E9E9",
"R 	c #444444",
"S 	c #212121",
"T 	c #B7B7B7",
"U 	c #7D7D7D",
"V 	c #A3A3A3",
"W 	c #525252",
"X 	c #040404",
"Y 	c #C7C7C7",
"Z 	c #DDDDDD",
"` 	c #878787",
" .	c #A4A4A4",
"..	c #B3B3B3",
"+.	c #838383",
"@.	c #343434",
"#.	c #F9F9F9",
"$.	c #A7A7A7",
"%.	c #464646",
"&.	c #FAFAFA",
"*.	c #A0A0A0",
"=.	c #0D0D0D",
"-.	c #7B7B7B",
";.	c #EBEBEB",
">.	c #020202",
",.	c #2C2C2C",
"'.	c #D7D7D7",
").	c #E1E1E1",
"!.	c #555555",
"~.	c #313131",
"{.	c #404040",
"].	c #9E9E9E",
"^.	c #AAAAAA",
"/.	c #DCDCDC",
"(.	c #B1B1B1",
"_.	c #757575",
":.	c #2D2D2D",
"<.	c #2B2B2B",
"[.	c #8C8C8C",
"}.	c #686868",
"|.	c #696969",
"1.	c #6D6D6D",
"2.	c #828282",
"3.	c #242424",
"                                                                                                                                                              ",
"                                                                                                                                                              ",
"                                                                                                                                                              ",
"                                                                                                                                                              ",
"                                                                                                                                                              ",
"                                                                  . + @ @ @ @ @ @ @ @ @ @ @ @ @ @ @ + #                                                       ",
"                                                                  $ % % % % % % % % % % % % % % % % % &                                                       ",
"                                                                * = % % % % % % % % % % % % % % % % % &                                                       ",
"                                                                - ; % % % % % % % % % % % % % % % % % &                                                       ",
"                                                                > , % % % % % % % % % % % % % % % % % &                                                       ",
"                                                                ' % % % % % % % % % % % % % % % % % % &                                                       ",
"                                                                ) % % % % % % % % % % % % % % % % % % &                                                       ",
"                                                              ! ~ % % % % % % % % % % % % % % % % % % &                                                       ",
"                                                              { ] % % % % % % % % % % % % % % % % % % &                                                       ",
"                                                              ^ ] % % % % % % % % % % % % % % % % % % &                                                       ",
"                                                              / % % % % % % % % % ( _ _ _ _ _ _ : : _ <                                                       ",
"                                                              $ % % % % % % % % % [ } | | | | ! ! 1 2 3                                                       ",
"                                                            ! 4 % % % % % % % % % 5 ^                                                                         ",
"                                                            1 4 % % % % % % % % % ( 6 7 8 9                                                                   ",
"                                                            0 a % % % % % % % % % % % % b 7 c d                                                               ",
"                                                            e % % % % % % % % % % % % % % % ~ f g                                                             ",
"                                                            h % % % % % % % % % % % % % % % % ( i j                                                           ",
"                                                          # 6 % % % % % % % % % % % % % % % % % k l                                                           ",
"                                                          m n o a a a o % % % % % % % % % % % % % p q                                                         ",
"                                                          r s t c u v w 5 x a % % % % % % % % % % % ' y                                                       ",
"                                                                      d z A B C % % % % % % % % % % D .                                                       ",
"                                                                            E F C % % % % % % % % % % G                                                       ",
"                                                                              3 H % % % % % % % % % % I J                                                     ",
"                                                                                K a % % % % % % % % % L M                                                     ",
"                                                                                N ( % % % % % % % % % O                                                       ",
"                                                                                P a % % % % % % % % % Q R                                                     ",
"                                                          S M                 1 T ( % % % % % % % % % O                                                       ",
"                                                          U V W |         X } Y ( % % % % % % % % % % Z 3                                                     ",
"                                                          ` % _ @ K  ...l +.L ( % % % % % % % % % % % : @.                                                    ",
"                                                          ` % % % % % % % % % % % % % % % % % % % % %  .                                                      ",
"                                                          ` % % % % % % % % % % % % % % % % % % % % #.$.                                                      ",
"                                                          ` % % % % % % % % % % % % % % % % % % % % L %.                                                      ",
"                                                          ` % % % % % % % % % % % % % % % % % % % 4 W                                                         ",
"                                                          ` % % % % % % % % % % % % % % % % % % C $.M                                                         ",
"                                                          ` % % % % % % % % % % % % % % % % % &.*.=.                                                          ",
"                                                          -.C % % % % % % % % % % % % % % % ;...>.                                                            ",
"                                                          ,.'.#.% % % % % % % % % % % % C ).!.~.                                                              ",
"                                                            {.].^.x &.% % % % % % o /.(._.%.                                                                  ",
"                                                                :.<.q [.}.|.|.1.0 2.3.:.                                                                      ",
"                                                                                                                                                              ",
"                                                                                                                                                              ",
"                                                                                                                                                              ",
"                                                                                                                                                              ",
"                                                                                                                                                              ",
"                                                                                                                                                              "};
