/* XPM */
static char * r6_xpm[] = {
"78 50 152 2",
"  	c #000000",
". 	c #181818",
"+ 	c #696969",
"@ 	c #6D6D6D",
"# 	c #282828",
"$ 	c #838383",
"% 	c #EFEFEF",
"& 	c #F8F8F8",
"* 	c #DEDEDE",
"= 	c #A5A5A5",
"- 	c #6C6C6C",
"; 	c #414141",
"> 	c #111111",
", 	c #A8A8A8",
"' 	c #FFFFFF",
") 	c #F4F4F4",
"! 	c #CECECE",
"~ 	c #AFAFAF",
"{ 	c #3F3F3F",
"] 	c #252525",
"^ 	c #E0E0E0",
"/ 	c #E9E9E9",
"( 	c #BDBDBD",
"_ 	c #737373",
": 	c #646464",
"< 	c #FDFDFD",
"[ 	c #C4C4C4",
"} 	c #070707",
"| 	c #B9B9B9",
"1 	c #F7F7F7",
"2 	c #6A6A6A",
"3 	c #686868",
"4 	c #DADADA",
"5 	c #1A1A1A",
"6 	c #5B5B5B",
"7 	c #FAFAFA",
"8 	c #BBBBBB",
"9 	c #020202",
"0 	c #CCCCCC",
"a 	c #FBFBFB",
"b 	c #676767",
"c 	c #4C4C4C",
"d 	c #F6F6F6",
"e 	c #1B1B1B",
"f 	c #929292",
"g 	c #FCFCFC",
"h 	c #949494",
"i 	c #0C0C0C",
"j 	c #454545",
"k 	c #C6C6C6",
"l 	c #F0F0F0",
"m 	c #828282",
"n 	c #303030",
"o 	c #C3C3C3",
"p 	c #848484",
"q 	c #212121",
"r 	c #4D4D4D",
"s 	c #CDCDCD",
"t 	c #0B0B0B",
"u 	c #767676",
"v 	c #2B2B2B",
"w 	c #FEFEFE",
"x 	c #808080",
"y 	c #272727",
"z 	c #D3D3D3",
"A 	c #F5F5F5",
"B 	c #B6B6B6",
"C 	c #5A5A5A",
"D 	c #3C3C3C",
"E 	c #C8C8C8",
"F 	c #EDEDED",
"G 	c #4A4A4A",
"H 	c #5C5C5C",
"I 	c #F9F9F9",
"J 	c #E2E2E2",
"K 	c #3B3B3B",
"L 	c #121212",
"M 	c #DFDFDF",
"N 	c #9F9F9F",
"O 	c #0E0E0E",
"P 	c #575757",
"Q 	c #E3E3E3",
"R 	c #3D3D3D",
"S 	c #4F4F4F",
"T 	c #EEEEEE",
"U 	c #2D2D2D",
"V 	c #9E9E9E",
"W 	c #565656",
"X 	c #9B9B9B",
"Y 	c #B2B2B2",
"Z 	c #505050",
"` 	c #969696",
" .	c #ACACAC",
"..	c #8C8C8C",
"+.	c #515151",
"@.	c #E8E8E8",
"#.	c #E4E4E4",
"$.	c #262626",
"%.	c #747474",
"&.	c #ADADAD",
"*.	c #A7A7A7",
"=.	c #909090",
"-.	c #EAEAEA",
";.	c #464646",
">.	c #393939",
",.	c #BEBEBE",
"'.	c #040404",
").	c #AAAAAA",
"!.	c #353535",
"~.	c #ABABAB",
"{.	c #666666",
"].	c #434343",
"^.	c #EBEBEB",
"/.	c #B4B4B4",
"(.	c #606060",
"_.	c #D6D6D6",
":.	c #474747",
"<.	c #535353",
"[.	c #B8B8B8",
"}.	c #8B8B8B",
"|.	c #444444",
"1.	c #A1A1A1",
"2.	c #8F8F8F",
"3.	c #A6A6A6",
"4.	c #A9A9A9",
"5.	c #F3F3F3",
"6.	c #171717",
"7.	c #C0C0C0",
"8.	c #292929",
"9.	c #0F0F0F",
"0.	c #7B7B7B",
"a.	c #F2F2F2",
"b.	c #525252",
"c.	c #BCBCBC",
"d.	c #5E5E5E",
"e.	c #D8D8D8",
"f.	c #424242",
"g.	c #A0A0A0",
"h.	c #D9D9D9",
"i.	c #7F7F7F",
"j.	c #C9C9C9",
"k.	c #9A9A9A",
"l.	c #4E4E4E",
"m.	c #727272",
"n.	c #333333",
"o.	c #595959",
"p.	c #959595",
"q.	c #787878",
"r.	c #6B6B6B",
"s.	c #757575",
"t.	c #6F6F6F",
"u.	c #313131",
"                                                                                                                                                            ",
"                                                                      . + @ #                                                                               ",
"                                                                      $ % & * = - ;                                                                         ",
"                                                                    > , ' ' ' ' ) ! ~ {                                                                     ",
"                                                                    ] ^ ' ' ' ' ' ' ' / ( _                                                                 ",
"                                                                    : < ' ' ' ' ' ' ' ' ' [                                                                 ",
"                                                                  } | ' ' ' ' ' ' ' ' ' 1 2                                                                 ",
"                                                                  3 * ' ' ' ' ' ' ' ' ' 4 5                                                                 ",
"                                                                  6 7 ' ' ' ' ' ' ' ' ' 8 9                                                                 ",
"                                                                9 0 ' ' ' ' ' ' ' ' ' a b                                                                   ",
"                                                                c d ' ' ' ' ' ' ' ' ' ^ e                                                                   ",
"                                                                f g ' ' ' ' ' ' ' ' < h i                                                                   ",
"                                                              j k ' ' ' ' ' ' ' ' ' l m n o p q                                                             ",
"                                                              r ) ' ' ' ' ' ' ' ' ' s t u ' 7 8 3 v                                                         ",
"                                                              ~ < ' ' ' ' ' ' ' ' w x y z ' ' ' A B C                                                       ",
"                                                            D E ' ' ' ' ' ' ' ' ' F G H I ' ' ' ' < J K L                                                   ",
"                                                            2 A ' ' ' ' ' ' ' ' ' ( v | w ' ' ' ' ' ' M N O                                                 ",
"                                                          e , ' ' ' ' ' ' ' ' ' g f P Q ' ' ' ' ' ' ' ' * R                                                 ",
"                                                          S T ' ' ' ' ' ' ' ' ' M U V < ' ' ' ' ' ' ' ' ' Q W                                               ",
"                                                          X d ' ' ' ' ' ' ' ' ' Y Z s ' ' ' ' ' ' ' ' ' ' a `                                               ",
"                                                        U  .' ' ' ' ' ' ' ' ' & .._ 7 ' ' ' ' ' ' ' ' ' ' ' J +.                                            ",
"                                                        R @.' ' ' ' ' ' ' ' ' #.$.0 ' ' ' ' ' ' ' ' ' ' ' ' g X                                             ",
"                                                        %.T ' ' ' ' ' ' ' ' ' &.c %.*.J w ' ' ' ' ' ' ' ' ' ' ~                                             ",
"                                                        =.' ' ' ' ' ' ' ' ' -.;.      >.,.w ' ' ' ' ' ' ' ' ' (                                             ",
"                                                      '.).' ' ' ' ' ' ' ' ' ! ;.        !.^ ' ' ' ' ' ' ' ' ' l S                                           ",
"                                                      G l ' ' ' ' ' ' ' ' ' ~.          9 = ' ' ' ' ' ' ' ' ' A {.                                          ",
"                                                      ].^.' ' ' ' ' ' ' ' ' ~.          L /.' ' ' ' ' ' ' ' ' ) (.                                          ",
"                                                        k ' ' ' ' ' ' ' ' ' _.:.        <.@.' ' ' ' ' ' ' ' ' [.                                            ",
"                                                        %.' ' ' ' ' ' ' ' ' & }.:.    |.,.' ' ' ' ' ' ' ' ' ' 1.                                            ",
"                                                        2.d ' ' ' ' ' ' ' ' ' & _., 3.E ' ' ' ' ' ' ' ' ' ' 7 4.                                            ",
"                                                        n #.' ' ' ' ' ' ' ' ' ' ' ' ' ' ' ' ' ' ' ' ' ' ' ' 5.<.                                            ",
"                                                        6.= ' ' ' ' ' ' ' ' ' ' ' ' ' ' ' ' ' ' ' ' ' ' ' ' 7.8.                                            ",
"                                                          +.^.' ' ' ' ' ' ' ' ' ' ' ' ' ' ' ' ' ' ' ' ' ' A b                                               ",
"                                                          9.0.a.' ' ' ' ' ' ' ' ' ' ' ' ' ' ' ' ' ' ' ' a ~.6.                                              ",
"                                                            b.c.' ' ' ' ' ' ' ' ' ' ' ' ' ' ' ' ' ' ' ' M d.                                                ",
"                                                              D ! & ' ' ' ' ' ' ' ' ' ' ' ' ' ' ' ' ' e.].                                                  ",
"                                                                f.g.a.' ' ' ' ' ' ' ' ' ' ' ' ' ' 1 h.r                                                     ",
"                                                                    i.j.' ' ' ' ' ' ' ' ' ' ' ' a.k.l.                                                      ",
"                                                                      !.h Q #.' ' ' ' ' ' / Q ~ m.v                                                         ",
"                                                                          n.o.p.q.r.- s.2.t.u.                                                              ",
"                                                                                                                                                            ",
"                                                                                                                                                            ",
"                                                                                                                                                            ",
"                                                                                                                                                            ",
"                                                                                                                                                            ",
"                                                                                                                                                            ",
"                                                                                                                                                            ",
"                                                                                                                                                            ",
"                                                                                                                                                            ",
"                                                                                                                                                            "};
