/* XPM */
static char * r7_xpm[] = {
"74 50 90 1",
" 	c #000000",
".	c #010101",
"+	c #020202",
"@	c #030303",
"#	c #040404",
"$	c #0C0C0C",
"%	c #555555",
"&	c #BCBCBC",
"*	c #BDBDBD",
"=	c #BEBEBE",
"-	c #8B8B8B",
";	c #777777",
">	c #FFFFFF",
",	c #FEFEFE",
"'	c #606060",
")	c #4C4C4C",
"!	c #CDCDCD",
"~	c #070707",
"{	c #9D9D9D",
"]	c #FDFDFD",
"^	c #323232",
"/	c #FAFAFA",
"(	c #484848",
"_	c #B0B0B0",
":	c #5E5E5E",
"<	c #FCFCFC",
"[	c #565656",
"}	c #747474",
"|	c #0E0E0E",
"1	c #151515",
"2	c #3A3A3A",
"3	c #B4B4B4",
"4	c #A5A5A5",
"5	c #333333",
"6	c #C2C2C2",
"7	c #232323",
"8	c #F7F7F7",
"9	c #C9C9C9",
"0	c #7B7B7B",
"a	c #B7B7B7",
"b	c #050505",
"c	c #BFBFBF",
"d	c #5C5C5C",
"e	c #262626",
"f	c #F8F8F8",
"g	c #303030",
"h	c #9A9A9A",
"i	c #C0C0C0",
"j	c #AEAEAE",
"k	c #343434",
"l	c #F9F9F9",
"m	c #3E3E3E",
"n	c #9E9E9E",
"o	c #C7C7C7",
"p	c #0A0A0A",
"q	c #CBCBCB",
"r	c #3D3D3D",
"s	c #FBFBFB",
"t	c #3C3C3C",
"u	c #888888",
"v	c #363636",
"w	c #8D8D8D",
"x	c #999999",
"y	c #F5F5F5",
"z	c #787878",
"A	c #4D4D4D",
"B	c #404040",
"C	c #959595",
"D	c #C8C8C8",
"E	c #080808",
"F	c #2D2D2D",
"G	c #F6F6F6",
"H	c #909090",
"I	c #525252",
"J	c #2A2A2A",
"K	c #ADADAD",
"L	c #E5E5E5",
"M	c #383838",
"N	c #A3A3A3",
"O	c #505050",
"P	c #BBBBBB",
"Q	c #454545",
"R	c #C5C5C5",
"S	c #868686",
"T	c #2B2B2B",
"U	c #989898",
"V	c #8C8C8C",
"W	c #2C2C2C",
"X	c #515151",
"Y	c #B9B9B9",
"                                                                          ",
"                                                                          ",
"                                                                          ",
"                                    ...++@@@@######$                      ",
"                          %&&&&&&&&&&&&******======-                      ",
"                          ;>>>>>>>>>>>>>>>>>>>>>>>,'                      ",
"                          ;>>>>>>>>>>>>>>>>>>>>>>>,)                      ",
"                          ;>>>>>>>>>>>>>>>>>>>>>>>!~                      ",
"                          ;>>>>>>>>>>>>>>>>>>>>>>>{                       ",
"                          ;>>>>>>>>>>>>>>>>>>>>>>]^                       ",
"                          ;>>>>>>>>>>>>>>>>>>>>>>/(                       ",
"                          ;>>>>>>>>>>>>>>>>>>>>>>_                        ",
"                          ;>>>>>>>>>>>>>>>>>>>>>,:                        ",
"                          ;>>>>>>>>>>>>>>>>>>>>><[                        ",
"                          }//////////]>>>>>>>>>>*|                        ",
"                          122222222223>>>>>>>>>>4                         ",
"                                    56>>>>>>>>>]5                         ",
"                                    78>>>>>>>>>9.                         ",
"                                    0>>>>>>>>>>a                          ",
"                                   bc>>>>>>>>>]d                          ",
"                                   ef>>>>>>>>>fg                          ",
"                                   ->>>>>>>>>>h                           ",
"                                  ~i>>>>>>>>>>j                           ",
"                                  kl>>>>>>>>><m                           ",
"                                  n>>>>>>>>>>ob                           ",
"                                 pq>>>>>>>>>>6                            ",
"                                 rs>>>>>>>>>st                            ",
"                                 us>>>>>>>>>fv                            ",
"                                 w>>>>>>>>>>x                             ",
"                                7y>>>>>>>>>]z                             ",
"                                A<>>>>>>>>><B                             ",
"                                C>>>>>>>>>>DE                             ",
"                               FG>>>>>>>>>>H                              ",
"                               I<>>>>>>>>>/J                              ",
"                               K>>>>>>>>>>L2                              ",
"                              Mf>>>>>>>>>>N                               ",
"                              %<>>>>>>>>><O                               ",
"                              P>>>>>>>>>>fQ                               ",
"                             +R>>>>>>>>>>S$                               ",
"                             Ts>>>>>>>>>>U                                ",
"                             V>>>>>>>>>>/W                                ",
"                             X&&&&&&&&&&Y^                                ",
"                                                                          ",
"                                                                          ",
"                                                                          ",
"                                                                          ",
"                                                                          ",
"                                                                          ",
"                                                                          ",
"                                                                          "};
