/* XPM */
static char * r8_xpm[] = {
"69 50 167 2",
"  	c #000000",
". 	c #121212",
"+ 	c #212121",
"@ 	c #9B9B9B",
"# 	c #9C9C9C",
"$ 	c #858585",
"% 	c #8A8A8A",
"& 	c #A3A3A3",
"* 	c #616161",
"= 	c #303030",
"- 	c #141414",
"; 	c #868686",
"> 	c #BEBEBE",
", 	c #D9D9D9",
"' 	c #F3F3F3",
") 	c #FFFFFF",
"! 	c #F0F0F0",
"~ 	c #DEDEDE",
"{ 	c #8F8F8F",
"] 	c #3C3C3C",
"^ 	c #0C0C0C",
"/ 	c #4B4B4B",
"( 	c #989898",
"_ 	c #F4F4F4",
": 	c #DDDDDD",
"< 	c #676767",
"[ 	c #363636",
"} 	c #373737",
"| 	c #CBCBCB",
"1 	c #EFEFEF",
"2 	c #CDCDCD",
"3 	c #444444",
"4 	c #525252",
"5 	c #CFCFCF",
"6 	c #FEFEFE",
"7 	c #A6A6A6",
"8 	c #232323",
"9 	c #979797",
"0 	c #EDEDED",
"a 	c #828282",
"b 	c #101010",
"c 	c #464646",
"d 	c #DCDCDC",
"e 	c #4E4E4E",
"f 	c #848484",
"g 	c #FCFCFC",
"h 	c #707070",
"i 	c #242424",
"j 	c #D7D7D7",
"k 	c #F9F9F9",
"l 	c #D8D8D8",
"m 	c #8B8B8B",
"n 	c #919191",
"o 	c #E5E5E5",
"p 	c #BDBDBD",
"q 	c #171717",
"r 	c #050505",
"s 	c #C6C6C6",
"t 	c #B6B6B6",
"u 	c #3A3A3A",
"v 	c #5D5D5D",
"w 	c #E4E4E4",
"x 	c #CCCCCC",
"y 	c #151515",
"z 	c #F1F1F1",
"A 	c #727272",
"B 	c #B1B1B1",
"C 	c #FBFBFB",
"D 	c #C0C0C0",
"E 	c #070707",
"F 	c #3B3B3B",
"G 	c #EEEEEE",
"H 	c #BABABA",
"I 	c #C5C5C5",
"J 	c #ECECEC",
"K 	c #3E3E3E",
"L 	c #9A9A9A",
"M 	c #FDFDFD",
"N 	c #C4C4C4",
"O 	c #0D0D0D",
"P 	c #252525",
"Q 	c #B7B7B7",
"R 	c #1F1F1F",
"S 	c #838383",
"T 	c #CECECE",
"U 	c #161616",
"V 	c #0E0E0E",
"W 	c #C1C1C1",
"X 	c #717171",
"Y 	c #7E7E7E",
"Z 	c #EBEBEB",
"` 	c #333333",
" .	c #2C2C2C",
"..	c #C7C7C7",
"+.	c #040404",
"@.	c #272727",
"#.	c #B8B8B8",
"$.	c #898989",
"%.	c #7F7F7F",
"&.	c #E7E7E7",
"*.	c #414141",
"=.	c #5F5F5F",
"-.	c #E1E1E1",
";.	c #E0E0E0",
">.	c #656565",
",.	c #131313",
"'.	c #A2A2A2",
").	c #0B0B0B",
"!.	c #606060",
"~.	c #FAFAFA",
"{.	c #DFDFDF",
"].	c #030303",
"^.	c #D4D4D4",
"/.	c #666666",
"(.	c #5E5E5E",
"_.	c #9D9D9D",
":.	c #020202",
"<.	c #191919",
"[.	c #C8C8C8",
"}.	c #2D2D2D",
"|.	c #0A0A0A",
"1.	c #D3D3D3",
"2.	c #636363",
"3.	c #A1A1A1",
"4.	c #BFBFBF",
"5.	c #ACACAC",
"6.	c #010101",
"7.	c #5B5B5B",
"8.	c #B2B2B2",
"9.	c #808080",
"0.	c #A5A5A5",
"a.	c #B4B4B4",
"b.	c #202020",
"c.	c #ADADAD",
"d.	c #2E2E2E",
"e.	c #494949",
"f.	c #777777",
"g.	c #F7F7F7",
"h.	c #1C1C1C",
"i.	c #CACACA",
"j.	c #B0B0B0",
"k.	c #060606",
"l.	c #6B6B6B",
"m.	c #515151",
"n.	c #EAEAEA",
"o.	c #E2E2E2",
"p.	c #5A5A5A",
"q.	c #4A4A4A",
"r.	c #8E8E8E",
"s.	c #F6F6F6",
"t.	c #DADADA",
"u.	c #585858",
"v.	c #8C8C8C",
"w.	c #E8E8E8",
"x.	c #949494",
"y.	c #939393",
"z.	c #C3C3C3",
"A.	c #3F3F3F",
"B.	c #A0A0A0",
"C.	c #ABABAB",
"D.	c #404040",
"E.	c #565656",
"F.	c #C2C2C2",
"G.	c #AAAAAA",
"H.	c #343434",
"I.	c #0F0F0F",
"J.	c #1A1A1A",
"                                                                                                                                          ",
"                                                                                                                                          ",
"                                                                                                                                          ",
"                                                                                                                                          ",
"                                                              . + @ # $ % & * = -                                                         ",
"                                                            ; > , ' ) ) ) ) ! ~ { ] ^                                                     ",
"                                                        / ( _ ) ) ) ) ) ) ) ) ) ) : < [                                                   ",
"                                                      } | ) ) ) ) ) ) ) ) ) ) ) ) ) 1 2 3                                                 ",
"                                                    4 5 ) ) ) ) ) ) ) ) ) ) ) ) ) ) ) 6 7 8                                               ",
"                                                  . 9 ) ) ) ) ) ) ) ) ) ) ) ) ) ) ) ) ) 0 a b                                             ",
"                                                  c d ) ) ) ) ) ) ) ) ) ) ) ) ) ) ) ) ) ) ~ e                                             ",
"                                                  f 6 ) ) ) ) ) ) ) ) ) ) ) ) ) ) ) ) ) ) g h                                             ",
"                                                i j ) ) ) ) ) ) ) k l m n o ) ) ) ) ) ) ) 6 p q                                           ",
"                                                r s ) ) ) ) ) ) ) t u     v w ) ) ) ) ) ) ) x y                                           ",
"                                                i j ) ) ) ) ) ) z A         B C ) ) ) ) ) ) D E                                           ",
"                                                F G ) ) ) ) ) ) ' *           G ) ) ) ) ) ) H                                             ",
"                                                  I ) ) ) ) ) ) J K         L M ) ) ) ) ) ) N O                                           ",
"                                                P l ) ) ) ) ) ) g Q R     S G ) ) ) ) ) ) ) T U                                           ",
"                                                V B ) ) ) ) ) ) ) M W T s J g ) ) ) ) ) ) g X                                             ",
"                                                  Y Z ) ) ) ) ) ) ) ) ) ) ) ) ) ) ) ) ) ) 5 `                                             ",
"                                                   ...) ) ) ) ) ) ) ) ) ) ) ) ) ) ) ) ) M S +.                                            ",
"                                                  @.#.) ) ) ) ) ) ) ) ) ) ) ) ) ) ) ) ) ' $.                                              ",
"                                                  %.&.) ) ) ) ) ) ) ) ) ) ) ) ) ) ) ) ) ) j *.                                            ",
"                                                =.-.) ) ) ) ) ) ) ) ) ) ) ) ) ) ) ) ) ) ) ) ;.>.                                          ",
"                                              ,.'.6 ) ) ) ) ) ) ) ) ) ) ) ) ) ) ) ) ) ) ) ) g # ).                                        ",
"                                              !.C ) ) ) ) ) ) ) ) ) C C ~.M ) ) ) ) ) ) ) ) ) {.=.                                        ",
"                                            ].9 M ) ) ) ) ) ) ) 6 ^.Y /.(._.z 6 ) ) ) ) ) ) ) k (.:.                                      ",
"                                            <.T ) ) ) ) ) ) ) 6 [.}.|.      X T ) ) ) ) ) ) ) ) 1..                                       ",
"                                            :.> ) ) ) ) ) ) ) G 2.            3.~.) ) ) ) ) ) ) 4.E                                       ",
"                                            c o ) ) ) ) ) ) ) 5.6.            7.5 ) ) ) ) ) ) ) 8.                                        ",
"                                            9.M ) ) ) ) ) ) ) W                 0.) ) ) ) ) ) ) a.6.                                      ",
"                                            b.j ) ) ) ) ) ) ) c.              d.x ) ) ) ) ) ) ) a.6.                                      ",
"                                            +.D ) ) ) ) ) ) ) , e.            f.g.) ) ) ) ) ) ) N |.                                      ",
"                                            h.1.) ) ) ) ) ) ) k L ].        f.i.) ) ) ) ) ) ) 6 j.k.                                      ",
"                                              9.M ) ) ) ) ) ) ) ~.7 =.@.. 0.: ~.) ) ) ) ) ) ) ~.l.                                        ",
"                                              m.z ) ) ) ) ) ) ) ) ) n.o.;.k ) ) ) ) ) ) ) ) ) j p.                                        ",
"                                              |.% 6 ) ) ) ) ) ) ) ) ) ) ) ) ) ) ) ) ) ) ) ) g ( ).                                        ",
"                                                q.5 ) ) ) ) ) ) ) ) ) ) ) ) ) ) ) ) ) ) ) 6 W m.                                          ",
"                                                h.r.s.) ) ) ) ) ) ) ) ) ) ) ) ) ) ) ) ) ) t.u.                                            ",
"                                                  E v.g.) ) ) ) ) ) ) ) ) ) ) ) ) ) ) ) w.x.).                                            ",
"                                                    V y.z.) ) ) ) ) ) ) ) ) ) ) ) ) ) > 3 ^                                               ",
"                                                        A.B.o ) ) ) ) ) ) ) ) ) ) w.C.D.                                                  ",
"                                                          q E.9 F.-.j ^.^., w G.0.p.,.                                                    ",
"                                                                q H.I.    J.u q                                                           ",
"                                                                                                                                          ",
"                                                                                                                                          ",
"                                                                                                                                          ",
"                                                                                                                                          ",
"                                                                                                                                          ",
"                                                                                                                                          "};
