/* XPM */
static char * r9_xpm[] = {
"72 50 133 2",
"  	c #000000",
". 	c #525252",
"+ 	c #010101",
"@ 	c #CFCFCF",
"# 	c #D8D8D8",
"$ 	c #C0C0C0",
"% 	c #CACACA",
"& 	c #E7E7E7",
"* 	c #8B8B8B",
"= 	c #212121",
"- 	c #A0A0A0",
"; 	c #FFFFFF",
"> 	c #D5D5D5",
", 	c #BCBCBC",
"' 	c #646464",
") 	c #151515",
"! 	c #9C9C9C",
"~ 	c #F7F7F7",
"{ 	c #D6D6D6",
"] 	c #121212",
"^ 	c #0E0E0E",
"/ 	c #C9C9C9",
"( 	c #EDEDED",
"_ 	c #A9A9A9",
": 	c #0B0B0B",
"< 	c #A5A5A5",
"[ 	c #999999",
"} 	c #7A7A7A",
"| 	c #1A1A1A",
"1 	c #B2B2B2",
"2 	c #060606",
"3 	c #2E2E2E",
"4 	c #EFEFEF",
"5 	c #AFAFAF",
"6 	c #161616",
"7 	c #555555",
"8 	c #F3F3F3",
"9 	c #373737",
"0 	c #BABABA",
"a 	c #FEFEFE",
"b 	c #F6F6F6",
"c 	c #666666",
"d 	c #5B5B5B",
"e 	c #E9E9E9",
"f 	c #949494",
"g 	c #FCFCFC",
"h 	c #B5B5B5",
"i 	c #E0E0E0",
"j 	c #222222",
"k 	c #696969",
"l 	c #676767",
"m 	c #6B6B6B",
"n 	c #F4F4F4",
"o 	c #989898",
"p 	c #DBDBDB",
"q 	c #4D4D4D",
"r 	c #9D9D9D",
"s 	c #4B4B4B",
"t 	c #818181",
"u 	c #A2A2A2",
"v 	c #DFDFDF",
"w 	c #474747",
"x 	c #3E3E3E",
"y 	c #2C2C2C",
"z 	c #C5C5C5",
"A 	c #8F8F8F",
"B 	c #515151",
"C 	c #BEBEBE",
"D 	c #838383",
"E 	c #969696",
"F 	c #2D2D2D",
"G 	c #6C6C6C",
"H 	c #9B9B9B",
"I 	c #D3D3D3",
"J 	c #D4D4D4",
"K 	c #AAAAAA",
"L 	c #383838",
"M 	c #B1B1B1",
"N 	c #CCCCCC",
"O 	c #ECECEC",
"P 	c #F8F8F8",
"Q 	c #484848",
"R 	c #9F9F9F",
"S 	c #E4E4E4",
"T 	c #C7C7C7",
"U 	c #494949",
"V 	c #6F6F6F",
"W 	c #FBFBFB",
"X 	c #343434",
"Y 	c #F2F2F2",
"Z 	c #D1D1D1",
"` 	c #444444",
" .	c #3B3B3B",
"..	c #1D1D1D",
"+.	c #B6B6B6",
"@.	c #F1F1F1",
"#.	c #606060",
"$.	c #A6A6A6",
"%.	c #282828",
"&.	c #F0F0F0",
"*.	c #232323",
"=.	c #EAEAEA",
"-.	c #B0B0B0",
";.	c #C8C8C8",
">.	c #454545",
",.	c #393939",
"'.	c #656565",
").	c #333333",
"!.	c #717171",
"~.	c #8E8E8E",
"{.	c #404040",
"].	c #C4C4C4",
"^.	c #909090",
"/.	c #A3A3A3",
"(.	c #E2E2E2",
"_.	c #808080",
":.	c #7E7E7E",
"<.	c #535353",
"[.	c #D0D0D0",
"}.	c #FAFAFA",
"|.	c #363636",
"1.	c #D7D7D7",
"2.	c #898989",
"3.	c #C2C2C2",
"4.	c #7D7D7D",
"5.	c #A8A8A8",
"6.	c #EEEEEE",
"7.	c #434343",
"8.	c #111111",
"9.	c #C1C1C1",
"0.	c #9A9A9A",
"a.	c #1E1E1E",
"b.	c #2A2A2A",
"                                                                                                                                                ",
"                                                                                                                                                ",
"                                                                  . + @ # $ % & * .                                                             ",
"                                                              = - ; ; ; ; ; ; ; ; ; > , '                                                       ",
"                                                          ) ! ; ; ; ; ; ; ; ; ; ; ; ; ; ~ { ]                                                   ",
"                                                      ^ / ( ; ; ; ; ; ; ; ; ; ; ; ; ; ; ; ; _                                                   ",
"                                                    : < ; ; ; ; ; ; ; ; ; ; ; ; ; ; ; ; ; ; ; [ }                                               ",
"                                                  | 1 ; ; ; ; ; ; ; ; ; ; ; ; ; ; ; ; ; ; ; ; ; [ 2                                             ",
"                                                  3 4 ; ; ; ; ; ; ; ; ; ; ; ; ; ; ; ; ; ; ; ; ; ; 5 6                                           ",
"                                                7 8 ; ; ; ; ; ; ; ; ; ; ; ; ; ; ; ; ; ; ; ; ; ; ; ; 9                                           ",
"                                                0 a ; ; ; ; ; ; ; ; ; ; ; ; ; ; ; ; ; ; ; ; ; ; ; ; b c                                         ",
"                                              d e ; ; ; ; ; ; ; ; ; ; ; ; ; ; ; ; ; ; ; ; ; ; ; ; ; ; f                                         ",
"                                              ) g ; ; ; ; ; ; ; ; ; ; ; ; ; ; ; ; ; ; ; ; ; ; ; ; ; ; 0                                         ",
"                                              h ; ; ; ; ; ; ; ; ; ; ; i j k l m ; ; ; ; ; ; ; ; ; ; ; n c                                       ",
"                                              o ; ; ; ; ; ; ; ; ; ; p q         r ; ; ; ; ; ; ; ; ; ; ; s                                       ",
"                                              t ; ; ; ; ; ; ; ; ; ;               u ; ; ; ; ; ; ; ; ; ;                                         ",
"                                              v ; ; ; ; ; ; ; ; ; ; c             v ; ; ; ; ; ; ; ; ; ; w                                       ",
"                                            x a ; ; ; ; ; ; ; ; ; ; y             z ; ; ; ; ; ; ; ; ; ;                                         ",
"                                              # ; ; ; ; ; ; ; ; ; ; A           B C ; ; ; ; ; ; ; ; ; ; w                                       ",
"                                              D ; ; ; ; ; ; ; ; ; ; ; E       + F a ; ; ; ; ; ; ; ; ; ; G                                       ",
"                                              $ ; ; ; ; ; ; ; ; ; ; ; ; H I $   J ; ; ; ; ; ; ; ; ; ; K                                         ",
"                                              L g ; ; ; ; ; ; ; ; ; ; ; ; ; C 9 M ; ; ; ; ; ; ; ; ; ; N                                         ",
"                                              7 O ; ; ; ; ; ; ; ; ; ; ; ; P   w ; ; ; ; ; ; ; ; ; ; ; Q                                         ",
"                                                R a ; ; ; ; ; ; ; ; ; ; ; S   T ; ; ; ; ; ; ; ; ; ; u )                                         ",
"                                                U n ; ; ; ; ; ; ; ; ; ; ; V   W ; ; ; ; ; ; ; ; ; ; T                                           ",
"                                                  X Y ; ; ; ; ; ; ; ; ; Z   ` ; ; ; ; ; ; ; ; ; ; ;  .                                          ",
"                                                  ..+.@.; ; ; ; ; ; ; ; #.  / ; ; ; ; ; ; ; ; ; ; $.%.                                          ",
"                                                    6 , &.; ; ; ; ; ; ; *.t 8 ; ; ; ; ; ; ; ; ; ; J                                             ",
"                                                        L n ; ; ; ; ; =.  | ; ; ; ; ; ; ; ; ; ; a L                                             ",
"                                                          G -.e ; ; ; l   ;.; ; ; ; ; ; ; ; ; ; 5 >.                                            ",
"                                                              ,.M ; J   '.; ; ; ; ; ; ; ; ; ; ; E                                               ",
"                                                                  ).!.+ ~.; ; ; ; ; ; ; ; ; ; a {.                                              ",
"                                                                        ].; ; ; ; ; ; ; ; ; ; r                                                 ",
"                                                                      ^.; ; ; ; ; ; ; ; ; ; g H                                                 ",
"                                                                      /.; ; ; ; ; ; ; ; ; ; a q                                                 ",
"                                                                      (.; ; ; ; ; ; ; ; ; ; _.                                                  ",
"                                                                    :.; ; ; ; ; ; ; ; ; ; g <.                                                  ",
"                                                                    [.; ; ; ; ; ; ; ; ; ; }.|.                                                  ",
"                                                                    1.; ; ; ; ; ; ; ; ; ; 2.                                                    ",
"                                                                    3.&.; ; ; ; ; ; ; ; }.U                                                     ",
"                                                                      | 4.5.n ; ; ; ; ; 6.7.                                                    ",
"                                                                            8.9.0.b ; ; *                                                       ",
"                                                                                %.a.9.& b.                                                      ",
"                                                                                                                                                ",
"                                                                                                                                                ",
"                                                                                                                                                ",
"                                                                                                                                                ",
"                                                                                                                                                ",
"                                                                                                                                                ",
"                                                                                                                                                "};
