/* XPM */
static char * p1_xpm[] = {
"100 50 151 2",
"  	c #000000",
". 	c #5E5E5E",
"+ 	c #393939",
"@ 	c #B5B5B5",
"# 	c #B1B1B1",
"$ 	c #AEAEAE",
"% 	c #C1C1C1",
"& 	c #878787",
"* 	c #525252",
"= 	c #0E0E0E",
"- 	c #BEBEBE",
"; 	c #F0F0F0",
"> 	c #F5F5F5",
", 	c #FFFFFF",
"' 	c #FBFBFB",
") 	c #F6F6F6",
"! 	c #D4D4D4",
"~ 	c #8B8B8B",
"{ 	c #2E2E2E",
"] 	c #7C7C7C",
"^ 	c #B8B8B8",
"/ 	c #2B2B2B",
"( 	c #5B5B5B",
"_ 	c #AFAFAF",
": 	c #EAEAEA",
"< 	c #FEFEFE",
"[ 	c #DBDBDB",
"} 	c #636363",
"| 	c #ADADAD",
"1 	c #E5E5E5",
"2 	c #2D2D2D",
"3 	c #414141",
"4 	c #DFDFDF",
"5 	c #E7E7E7",
"6 	c #505050",
"7 	c #757575",
"8 	c #6C6C6C",
"9 	c #E3E3E3",
"0 	c #EEEEEE",
"a 	c #676767",
"b 	c #323232",
"c 	c #CCCCCC",
"d 	c #B0B0B0",
"e 	c #585858",
"f 	c #F4F4F4",
"g 	c #ECECEC",
"h 	c #464646",
"i 	c #929292",
"j 	c #F8F8F8",
"k 	c #949494",
"l 	c #1E1E1E",
"m 	c #DDDDDD",
"n 	c #E9E9E9",
"o 	c #A6A6A6",
"p 	c #909090",
"q 	c #555555",
"r 	c #ABABAB",
"s 	c #AAAAAA",
"t 	c #0F0F0F",
"u 	c #D2D2D2",
"v 	c #DCDCDC",
"w 	c #4B4C4B",
"x 	c #080908",
"y 	c #7F7F7F",
"z 	c #B2B2B2",
"A 	c #434343",
"B 	c #8C8C8C",
"C 	c #F2F2F2",
"D 	c #EFEFEF",
"E 	c #666666",
"F 	c #171717",
"G 	c #D7D7D7",
"H 	c #CDCDCD",
"I 	c #E8E8E8",
"J 	c #353535",
"K 	c #959595",
"L 	c #6A6A6A",
"M 	c #3A3A3A",
"N 	c #5C5C5C",
"O 	c #EBEBEB",
"P 	c #747474",
"Q 	c #3F413F",
"R 	c #DEDEDE",
"S 	c #717171",
"T 	c #A7A7A7",
"U 	c #969696",
"V 	c #686868",
"W 	c #9A9A9A",
"X 	c #BABABA",
"Y 	c #F9F9F9",
"Z 	c #C9C9C9",
"` 	c #363636",
" .	c #A5A5A5",
"..	c #9B9B9B",
"+.	c #FCFCFC",
"@.	c #787878",
"#.	c #D8D8D8",
"$.	c #2C2C2C",
"%.	c #C3C3C3",
"&.	c #797979",
"*.	c #BBBBBB",
"=.	c #1F1F1F",
"-.	c #7E7E7E",
";.	c #EDEDED",
">.	c #FAFAFA",
",.	c #DADADA",
"'.	c #010101",
").	c #272727",
"!.	c #303030",
"~.	c #858585",
"{.	c #CECECE",
"].	c #D0D0D0",
"^.	c #656565",
"/.	c #3D3D3D",
"(.	c #494949",
"_.	c #040404",
":.	c #898989",
"<.	c #3E3E3E",
"[.	c #161616",
"}.	c #1B1C1B",
"|.	c #7D7D7D",
"1.	c #828282",
"2.	c #545454",
"3.	c #D5D5D5",
"4.	c #4E4E4E",
"5.	c #8E8E8E",
"6.	c #F1F1F1",
"7.	c #404040",
"8.	c #444444",
"9.	c #C6C6C6",
"0.	c #131313",
"a.	c #B8B9B8",
"b.	c #777777",
"c.	c #D0D1D0",
"d.	c #B7B7B7",
"e.	c #BCBCBC",
"f.	c #FDFDFD",
"g.	c #6B6B6B",
"h.	c #A9A9A9",
"i.	c #9C9C9C",
"j.	c #1B1B1B",
"k.	c #707070",
"l.	c #6E6E6E",
"m.	c #6F6F6F",
"n.	c #0D0D0D",
"o.	c #CBCBCB",
"p.	c #E0E0E0",
"q.	c #BDBDBD",
"r.	c #1A1A1A",
"s.	c #1D1D1D",
"t.	c #1C1C1C",
"                                                                                                                                                                                                        ",
"                                                                                                                                                                                                        ",
"                                                                                                                                                                                                        ",
"                                                                                                                                                                                                        ",
"                                                                                                                                                                                                        ",
"                                                                                                                                                                                                        ",
"                                                                                                                                                                                                        ",
"                                                      . + @ # $ % & *                                                                                                                                   ",
"                                                = . - ; > , , , , ' ) ! ~ {                             ] ^ ^ ^ ^ ^ ^ ^ ^ # /                                                                           ",
"                                              ( _ : , , , , , , , , , , < [ }                           | , , , , , , , , 1 2                                                                           ",
"                                            3 4 , , , , , , , , , , , , , , 5 6                         | , , , , , , , , 1 2                                                                           ",
"                                          7 4 , , , , , , , , , , , , , , , , 5 .                       | , , , , , , , , 1 2                                                                           ",
"                                        8 9 , , , , , , , , , , , , , , , , , , 0 a                     | , , , , , , , , 1 2                                                                           ",
"                                      b c , , , , , , , , , , , , , , , , , , , < d                     | , , , , , , , , 1 2                                                                           ",
"                                      e f , , , , , , , , , , , , , , , , , , , , g h                   | , , , , , , , , 1 2                                                                           ",
"                                      i , , , , , , , , , , , , , , , , , , , , , j k                   | , , , , , , , , 1 2                                                                           ",
"                                    l m , , , , , , , , , n o ^ > , , , , , , , , , p                   | , , , , , , , , 1 2                             q $ r $ s e                                   ",
"                                    t u , , , , , , , , v w x   y ) , , , , , , , , z                   | , , , , , , , , 1 2                         A B C , , , < D E                                 ",
"                                    F G , , , , , , , , H       { 0 , , , , , , , , I J                 | , , , , , , , , 1 2                         K C , , , , , , 0 L                               ",
"                                    M < , , , , , , , , m       N C , , , , , , , , O M                 | , , , , , , , , 1 2                       P > , , , , , , , , D Q                             ",
"                                    M < , , , , , , , , R q S @ g , , , , , , , , , @                   | , , , , , , , , 1 2                       T < , , , , , , , , ' U                             ",
"                                    M < , , , , , , , , m V j , , , , , , , , , , , W                   | , , , , , , , , 1 2                       c , , , , , , , , , , X                             ",
"                                    M < , , , , , , , , m V j , , , , , , , , , , Y ]                   | , , , , , , , , 1 2                       Z , , , , , , , , , , X                             ",
"                                    M < , , , , , , , , v V j , , , , , , , , , , ! `                   | , , , , , , , , 1 2                        .< , , , , , , , , ' ..                            ",
"                                    M < , , , , , , , , [ V j , , , , , , , , , +.~                     | , , , , , , , , 1 2                       @.) , , , , , , , , #.$.                            ",
"                                    M < , , , , , , , , [ V j , , , , , , , , , %.+                     | , , , , , , , , 1 2                         &.f , , , , , , ; @.                              ",
"                                    M < , , , , , , , , [ V j , , , , , , , < *.=.                      | , , , , , , , , 1 2                           -.;.+., , >.,.@.'.                              ",
"                                    M < , , , , , , , , [ V j , , , , , , : $ ).                        | , , , , , , , , 1 2                             !.~.{.].^./.                                  ",
"                                    M < , , , , , , , , [ V j , , >.G [ U (.                            | , , , , , , , , 1 2                                                                           ",
"                                    M < , , , , , , , , [ _.:.p i <.[.2                                 | , , , , , , , , 1 2                             }.|.1.& &.=                                   ",
"                                    M < , , , , , , , , [                                               | , , , , , , , , 1 2                           2.3.;., , O | 4.                                ",
"                                    M < , , , , , , , , [                                               | , , , , , , , , 1 2                         5.6., , , , , , [ 7.                              ",
"                                    M < , , , , , , , , [                                               | , , , , , , , , 1 2                       8.>., , , , , , , , 9.0.                            ",
"                                    M < , , , , , , , , [                                               | , , , , , , , , 1 2                       a., , , , , , , , , Y b.                            ",
"                                    M < , , , , , , , , [                                               | , , , , , , , , 1 2                       c., , , , , , , , , , %.                            ",
"                                    M < , , , , , , , , [                                               | , , , , , , , , 1 2                       9., , , , , , , , , , d.                            ",
"                                    M < , , , , , , , , [                                               | , , , , , , , , 1 2                       e.< , , , , , , , , f.d                             ",
"                                    M < , , , , , , , , [                                               | , , , , , , , , 1 2                       g.f., , , , , , , , Y }                             ",
"                                    M < , , , , , , , , [                                               | , , , , , , , , 1 2                       l h., , , , , , , ' i.j.                            ",
"                                    M , , , , , , , , , v                                               $ , , , , , , , , 5 {                         k.% f., , , , >.U                                 ",
"                                    0.l.m.m.m.m.m.m.m.m..                                               (.m.m.m.m.m.m.m.m.} n.                            5.o.R p.q.8 n.                                ",
"                                                                                                                                                            r.s.=.t.                                    ",
"                                                                                                                                                                                                        ",
"                                                                                                                                                                                                        ",
"                                                                                                                                                                                                        ",
"                                                                                                                                                                                                        ",
"                                                                                                                                                                                                        ",
"                                                                                                                                                                                                        ",
"                                                                                                                                                                                                        ",
"                                                                                                                                                                                                        "};
