/* XPM */
static char * p2_xpm[] = {
"100 47 190 2",
"  	c #000000",
". 	c #373737",
"+ 	c #2C2C2C",
"@ 	c #323232",
"# 	c #424242",
"$ 	c #0D0D0D",
"% 	c #2E2E2E",
"& 	c #404040",
"* 	c #3B3B3B",
"= 	c #333333",
"- 	c #353535",
"; 	c #ABABAB",
"> 	c #B0B0B0",
", 	c #EDEDED",
"' 	c #E8E8E8",
") 	c #EAEAEA",
"! 	c #F2F2F2",
"~ 	c #B3B3B3",
"{ 	c #9C9C9C",
"] 	c #4E4E4E",
"^ 	c #5D5D5D",
"/ 	c #A0A0A0",
"( 	c #CECECE",
"_ 	c #F1F1F1",
": 	c #EEEEEE",
"< 	c #E6E6E6",
"[ 	c #B8B8B8",
"} 	c #A1A1A1",
"| 	c #FAFAFA",
"1 	c #FEFEFE",
"2 	c #FFFFFF",
"3 	c #E7E7E7",
"4 	c #AFAFAF",
"5 	c #393939",
"6 	c #C3C3C3",
"7 	c #F6F6F6",
"8 	c #F8F8F8",
"9 	c #B9B9B9",
"0 	c #676767",
"a 	c #727272",
"b 	c #EBEBEB",
"c 	c #D3D3D3",
"d 	c #1E1E1E",
"e 	c #717171",
"f 	c #7A7A7A",
"g 	c #161616",
"h 	c #8B8B8B",
"i 	c #CDCDCD",
"j 	c #6E6E6E",
"k 	c #F0F0F0",
"l 	c #808080",
"m 	c #040404",
"n 	c #838383",
"o 	c #F3F3F3",
"p 	c #DBDBDB",
"q 	c #515151",
"r 	c #292929",
"s 	c #767676",
"t 	c #EFEFEF",
"u 	c #FBFBFB",
"v 	c #8F8F8F",
"w 	c #B2B2B2",
"x 	c #BEBEBE",
"y 	c #A2A2A2",
"z 	c #1D1D1D",
"A 	c #666666",
"B 	c #585858",
"C 	c #757575",
"D 	c #737373",
"E 	c #A3A3A3",
"F 	c #555555",
"G 	c #F9F9F9",
"H 	c #C8C8C8",
"I 	c #FCFCFC",
"J 	c #4A4A4A",
"K 	c #C4C4C4",
"L 	c #D1D1D1",
"M 	c #C2C2C2",
"N 	c #030303",
"O 	c #868686",
"P 	c #CFCFCF",
"Q 	c #C6C6C6",
"R 	c #D2D2D2",
"S 	c #9D9D9D",
"T 	c #4F4F4F",
"U 	c #181818",
"V 	c #F5F5F5",
"W 	c #C9C9C9",
"X 	c #A6A6A6",
"Y 	c #B7B7B7",
"Z 	c #C0C0C0",
"` 	c #171717",
" .	c #646464",
"..	c #F4F4F4",
"+.	c #656565",
"@.	c #B4B4B4",
"#.	c #0F0F0F",
"$.	c #6C6C6C",
"%.	c #919191",
"&.	c #DEDEDE",
"*.	c #313131",
"=.	c #ADADAD",
"-.	c #D5D5D5",
";.	c #4D4D4D",
">.	c #929292",
",.	c #D7D7D7",
"'.	c #9B9B9B",
").	c #020202",
"!.	c #DFDFDF",
"~.	c #4B4B4B",
"{.	c #8E8E8E",
"].	c #D6D6D6",
"^.	c #8D8D8D",
"/.	c #D0D0D0",
"(.	c #F7F7F7",
"_.	c #ACACAC",
":.	c #E3E3E3",
"<.	c #4C4C4C",
"[.	c #1A1A1A",
"}.	c #B6B6B6",
"|.	c #BDBDBD",
"1.	c #E1E1E1",
"2.	c #0C0C0C",
"3.	c #888888",
"4.	c #6A6A6A",
"5.	c #747474",
"6.	c #D8D8D8",
"7.	c #070707",
"8.	c #D4D4D4",
"9.	c #080808",
"0.	c #2F2F2F",
"a.	c #E4E4E4",
"b.	c #525252",
"c.	c #FDFDFD",
"d.	c #0A0A0A",
"e.	c #7E7E7E",
"f.	c #545454",
"g.	c #969696",
"h.	c #5E5E5E",
"i.	c #626262",
"j.	c #CBCBCB",
"k.	c #3E3E3E",
"l.	c #141414",
"m.	c #BCBCBC",
"n.	c #DDDDDD",
"o.	c #282828",
"p.	c #959595",
"q.	c #BBBBBB",
"r.	c #242424",
"s.	c #202020",
"t.	c #1C1C1C",
"u.	c #BABABA",
"v.	c #707070",
"w.	c #272727",
"x.	c #AEAEAE",
"y.	c #111111",
"z.	c #2A2A2A",
"A.	c #9F9F9F",
"B.	c #E5E5E5",
"C.	c #474747",
"D.	c #343434",
"E.	c #A7A7A7",
"F.	c #444444",
"G.	c #5B5B5B",
"H.	c #060606",
"I.	c #606060",
"J.	c #CACACA",
"K.	c #3F3F3F",
"L.	c #898989",
"M.	c #777777",
"N.	c #303030",
"O.	c #151515",
"P.	c #DADADA",
"Q.	c #6D6D6D",
"R.	c #989898",
"S.	c #262626",
"T.	c #9A9A9A",
"U.	c #ECECEC",
"V.	c #B1B1B1",
"W.	c #DCDCDC",
"X.	c #0B0B0B",
"Y.	c #949494",
"Z.	c #5F5F5F",
"`.	c #B5B5B5",
" +	c #3A3A3A",
".+	c #CCCCCC",
"++	c #5C5C5C",
"@+	c #2B2B2B",
"#+	c #0E0E0E",
"$+	c #C1C1C1",
"                                                                                                                                                                                                        ",
"                                                                                                                                                                                                        ",
"                                                                                                                                                                                                        ",
"                                                                                                                                                                                                        ",
"                                                                                                                                                                                                        ",
"                                                                  . + @ # $                                     % & + * =                                                                               ",
"                                                            - ; > , ' ) ! ~ { ]                             ^ / ( _ ' : < [ &                                                                           ",
"                                                        # } | 1 2 2 2 2 2 2 1 3 4 &                     5 6 7 1 2 2 2 2 2 2 8 9 0                                                                       ",
"                                                      a b 2 2 2 2 2 2 2 2 2 2 2 2 c d                 e ) 2 2 2 2 2 2 2 2 2 2 2 , f g                                                                   ",
"                                                    h ! 2 2 2 2 2 2 2 2 2 2 2 2 2 2 i @             j k 2 2 2 2 2 2 2 2 2 2 2 2 2 b l                                                                   ",
"                                                m n o 2 2 2 2 2 2 2 2 2 2 2 2 2 2 2 2 p q         r i 2 2 2 2 2 2 2 2 2 2 2 2 2 2 2 : s                                                                 ",
"                                                ^ t 2 2 2 2 2 2 2 2 2 2 2 2 2 2 2 2 2 u v       m w 2 2 2 2 2 2 2 2 2 2 2 2 2 2 2 2 2 x                                                                 ",
"                                                y 2 2 2 2 2 2 2 2 2 2 2 2 2 2 2 2 2 2 2 p z     A 3 2 2 2 2 2 2 2 2 2 2 2 2 2 2 2 2 2 8 B                                                               ",
"                                                c 2 2 2 2 2 2 2 2 2 2 2 2 2 2 2 2 2 2 2 ! C     D 1 2 2 2 2 2 2 2 2 2 2 2 2 2 2 2 2 2 1 E                                                               ",
"                                              F G 2 2 2 2 2 2 2 1 p h H I 2 2 2 2 2 2 2 2 J     K 2 2 2 2 2 2 2 2 L M ' 1 2 2 2 2 2 2 2 >               N O P Q R S T                                   ",
"                                              U V 2 2 2 2 2 2 2 W g     X 2 2 2 2 2 2 2 2 4     Y 2 2 2 2 2 2 2 Z `    .) 2 2 2 2 2 2 2 ..]           +.@.1 2 2 2 2 c #.                                ",
"                                              $.u 2 2 2 2 2 2 2 i       %.2 2 2 2 2 2 2 2 &.    4 2 2 2 2 2 2 2 e       i 2 2 2 2 2 2 2 V q         *.=.1 2 2 2 2 2 2 -.;.                              ",
"                                              >.2 2 2 2 2 2 2 2 ,.    C p 2 2 2 2 2 2 2 2 Z     Y 2 2 2 2 2 2 2 '.).  ` : 2 2 2 2 2 2 2 !.~.        J G 2 2 2 2 2 2 2 2 {.                              ",
"                                              >.2 2 2 2 2 2 2 2 ].^./.(.2 2 2 2 2 2 2 2 2 ~.    _.2 2 2 2 2 2 2 :.<.[.'.I 2 2 2 2 2 2 2 }.          |.2 2 2 2 2 2 2 2 2 1.2.                            ",
"                                              >.2 2 2 2 2 2 2 2 -.3.1 2 2 2 2 2 2 2 2 2 1 4.    A I 2 2 2 2 2 2 v   5.o 2 2 2 2 2 2 2 1 3.          _.2 2 2 2 2 2 2 2 2 6.7.                            ",
"                                              >.2 2 2 2 2 2 2 2 8.3.1 2 2 2 2 2 2 2 2 2 P `     9.M 2 2 2 2 2 &.0.  }.2 2 2 2 2 2 2 2 a.b.          X c.2 2 2 2 2 2 2 2 R d.                            ",
"                                              >.2 2 2 2 2 2 2 2 8.3.1 2 2 2 2 2 2 2 2 | e.        a (.2 2 2 I l   f.o 2 2 2 2 2 2 2 2 g.).          h.8 2 2 2 2 2 2 2 7 i.                              ",
"                                              >.2 2 2 2 2 2 2 2 8.3.1 2 2 2 2 2 2 2 2 j.5         k.Q 2 2 2 M   l.m.2 2 2 2 2 2 2 2 n.o.              p.7 2 2 2 2 2 2 q.r.                              ",
"                                              >.2 2 2 2 2 2 2 2 8.3.1 2 2 2 2 2 2 2 6 s.            t.u.1 ..v.  i.: 2 2 2 2 2 2 2 1 p.                w.3.t c.2 c.t x.y.                                ",
"                                              >.2 2 2 2 2 2 2 2 8.3.1 2 2 2 2 2 b ; z.                [.A.w %   -.2 2 2 2 2 2 2 2 B.C.                    D.g.q.E.F.                                    ",
"                                              >.2 2 2 2 2 2 2 2 8.l 8 G V 6.L e G.H.                      7.  >.u 2 2 2 2 2 2 2 c.p.).                                                                  ",
"                                              >.2 2 2 2 2 2 2 2 8.  I.+.F.                                  s.,.2 2 2 2 2 2 2 2 &.*                       +.@.u.J.K.                                    ",
"                                              >.2 2 2 2 2 2 2 2 8.                                          L.1 2 2 2 2 2 2 2 2 c 5.5.M.f N.            p.u 1 2 2 V [ O.                                ",
"                                              >.2 2 2 2 2 2 2 2 8.                                        . P.2 2 2 2 2 2 2 2 2 2 2 2 2 2 Q.          R.| 2 2 2 2 2 2 Q S.                              ",
"                                              >.2 2 2 2 2 2 2 2 8.                                        T.I 2 2 2 2 2 2 2 2 2 2 2 2 2 2 $.        [.U.2 2 2 2 2 2 2 (.A                               ",
"                                              >.2 2 2 2 2 2 2 2 8.                                      w.U.2 2 2 2 2 2 2 2 2 2 2 2 2 2 2 $.        }.1 2 2 2 2 2 2 2 2 p 2.                            ",
"                                              >.2 2 2 2 2 2 2 2 8.                                      =.2 2 2 2 2 2 2 2 2 2 2 2 2 2 2 2 $.        =.2 2 2 2 2 2 2 2 2 6.7.                            ",
"                                              >.2 2 2 2 2 2 2 2 8.                                    B k 2 2 2 2 2 2 2 2 2 2 2 2 2 2 2 2 $.        V.1 2 2 2 2 2 2 2 2 W.X.                            ",
"                                              >.2 2 2 2 2 2 2 2 8.                                  d.Y 2 2 2 2 2 2 2 2 2 2 2 2 2 2 2 2 2 $.        J G 2 2 2 2 2 2 2 2 Y.                              ",
"                                              >.2 2 2 2 2 2 2 2 8.                                  Z.) 2 2 2 2 2 2 2 2 2 2 2 2 2 2 2 2 2 $.        ` `.2 2 2 2 2 2 2 j. +                              ",
"                                              >.2 2 2 2 2 2 2 2 8.                                  .+2 2 2 2 2 2 2 2 2 2 2 2 2 2 2 2 2 2 $.          ++`.c.2 2 2 1 W                                   ",
"                                              ` N.N.N.N.N.N.N.N.S.                                  @+N.N.N.N.N.N.N.N.N.N.N.N.N.N.N.N.N.N.#+              v.$+Q R b.l.                                  ",
"                                                                                                                                                                                                        ",
"                                                                                                                                                                                                        ",
"                                                                                                                                                                                                        ",
"                                                                                                                                                                                                        ",
"                                                                                                                                                                                                        ",
"                                                                                                                                                                                                        ",
"                                                                                                                                                                                                        ",
"                                                                                                                                                                                                        ",
"                                                                                                                                                                                                        ",
"                                                                                                                                                                                                        "};
