/* XPM */
static char * large_ball_xpm[] = {
"36 40 4 1",
" 	c #03A529",
".	c #00AA00",
"+	c #03A429",
"@	c #DEFF9C",
"  ...............  ............... +",
"....................................",
"....................................",
"....................................",
"....................................",
"....................................",
"....................................",
"....................................",
"...........@@@@@@@@@@@@@............",
"...........@@@@@@@@@@@@@............",
"...........@@@@@@@@@@@@@............",
"...........@@@@@@@@@@@@@............",
".......@@@@@@@@@@@@@@@@@@@@@@.......",
".......@@@@@@@@@@@@@@@@@@@@@@.......",
".......@@@@@@@@@@@@@@@@@@@@@@.......",
".......@@@@@@@@@@@@@@@@@@@@@@.......",
".......@@@@@@@@@@@@@@@@@@@@@@.......",
".......@@@@@@@@@@@@@@@@@@@@@@.......",
".......@@@@@@@@@@@@@@@@@@@@@@.......",
".......@@@@@@@@@@@@@@@@@@@@@@.......",
".......@@@@@@@@@@@@@@@@@@@@@@.......",
".......@@@@@@@@@@@@@@@@@@@@@@.......",
".......@@@@@@@@@@@@@@@@@@@@@@.......",
".......@@@@@@@@@@@@@@@@@@@@@@.......",
".......@@@@@@@@@@@@@@@@@@@@@@.......",
".......@@@@@@@@@@@@@@@@@@@@@@.......",
".......@@@@@@@@@@@@@@@@@@@@@@.......",
".......@@@@@@@@@@@@@@@@@@@@@@.......",
".......@@@@@@@@@@@@@@@@@@@@@@.......",
"...........@@@@@@@@@@@@@............",
"...........@@@@@@@@@@@@@............",
"...........@@@@@@@@@@@@@............",
"...........@@@@@@@@@@@@@............",
"....................................",
"....................................",
"....................................",
"....................................",
"....................................",
"....................................",
"...................................."};
