/* XPM */
static char * medium_ball_xpm[] = {
"24 30 15 1",
" 	c #01A90D",
".	c #00AA06",
"+	c #00AA01",
"@	c #00AA00",
"#	c #00AA02",
"$	c #00A907",
"%	c #00AA04",
"&	c #00A90A",
"*	c #DEFF9C",
"=	c #DFFF9D",
"-	c #00A900",
";	c #00A800",
">	c #00A906",
",	c #00A908",
"'	c #00AA03",
" .+@@@@@@@#$$#@@@@@@@@%&",
"%#@@@@@@@@+##+@@@@@@@@#.",
"@@@@@@@@@@@@@@@@@@@@@@@#",
"@@@@@@@@@@@@@@@@@@@@@@@@",
"@@@@@@@@@@@@@@@@@@@@@@@@",
"@@@@@@@@@@@@@@@@@@@@@@@@",
"@@@@@@@@@@@@@@@@@@@@@@@@",
"@@@@@@@@@@@@@@@@@@@@@@@@",
"@@@@@@@@********@@@@@@@@",
"@@@@@@@@*=****=*@@@@@@@@",
"@@@@@---********--@@@@@@",
"@@@@***************@@@@@",
"@@@;***************-@@@@",
"@@@;***************-@@@@",
"@@@;***************-@@#>",
"@@@;***************-@@#,",
"@@@;***************-@@+'",
"@@@;***************-@@@@",
"@@@@***************@@@@@",
"@@@@@---********--@@@@@@",
"@@@@@@@@*=****=*@@@@@@@@",
"@@@@@@@@********@@@@@@@@",
"@@@@@@@@@@@@@@@@@@@@@@@@",
"@@@@@@@@@@@@@@@@@@@@@@@@",
"@@@@@@@@@@@@@@@@@@@@@@@@",
"@@@@@@@@@@@@@@@@@@@@@@@@",
"@@@@@@@@@@@@@@@@@@@@@@@@",
"@@@@@@@@@@@@@@@@@@@@@@@@",
"@@@@@@@@@@@@@@@@@@@@@@+'",
"@@@@@@@@@@@@@@@@@@@@@@'&"};
