/* XPM */
static char * small_ball_xpm[] = {
"20 20 4 1",
" 	c #00A90C",
".	c #00AA07",
"+	c #00AA00",
"@	c #DEFF9C",
" .++++++++++++++++. ",
"++++++++++++++++++++",
"++++++++++++++++++++",
"++++++++++++++++++++",
"++++++++++++++++++++",
"++++++++++++++++++++",
"++++++@@@@@@@@++++++",
"++++++@@@@@@@@++++++",
"++++++@@@@@@@@++++++",
"++++++@@@@@@@@++++++",
"++++++@@@@@@@@++++++",
"++++++@@@@@@@@++++++",
"++++++@@@@@@@@++++++",
"++++++@@@@@@@@++++++",
"++++++++++++++++++++",
"++++++++++++++++++++",
"++++++++++++++++++++",
"++++++++++++++++++++",
"++++++++++++++++++++",
"++++++++++++++++++++"};
