/* XPM */
static char * very_large_ball_xpm[] = {
"45 50 2 1",
" 	c #00AA00",
".	c #DEFF9C",
"                                             ",
"                                             ",
"                                             ",
"                                             ",
"               ................              ",
"              .................              ",
"              .................              ",
"              .................              ",
"              .................              ",
"         ..........................          ",
"         ...........................         ",
"         ...........................         ",
"         ...........................         ",
"         ...........................         ",
"    ....................................     ",
"    .....................................    ",
"    .....................................    ",
"    .....................................    ",
"    .....................................    ",
"    .....................................    ",
"    .....................................    ",
"    .....................................    ",
"    .....................................    ",
"    .....................................    ",
"    .....................................    ",
"    .....................................    ",
"    .....................................    ",
"    .....................................    ",
"    .....................................    ",
"    .....................................    ",
"    .....................................    ",
"    .....................................    ",
"    .....................................    ",
"    .....................................    ",
"    .....................................    ",
"         ...........................         ",
"         ...........................         ",
"         ...........................         ",
"         ...........................         ",
"         ...........................         ",
"              .................              ",
"              .................              ",
"              .................              ",
"              .................              ",
"              .................              ",
"               ...............               ",
"                                             ",
"                                             ",
"                                             ",
"                                             "};
